<svg width="820" height="640" viewBox="0 0 820 640" xmlns="http://www.w3.org/2000/svg" role="img" aria-label="マンガン酸リチウム LiMn2O4 結晶構造イメージ">
  <title>マンガン酸リチウム（LiMn₂O₄）正極材料イメージ</title>
  <desc>リチウムイオン電池の新たな正極材料マンガン酸リチウムの結晶構造イメージ（オリジナル）。</desc>
  <defs>
    <radialGradient id="gMn" cx="0.35" cy="0.3" r="0.75"><stop offset="0" stop-color="#D3A7EC"/><stop offset="1" stop-color="#6A2EA0"/></radialGradient>
    <radialGradient id="gLi" cx="0.35" cy="0.3" r="0.75"><stop offset="0" stop-color="#A9E8AC"/><stop offset="1" stop-color="#2E9E55"/></radialGradient>
    <radialGradient id="gO" cx="0.35" cy="0.3" r="0.8"><stop offset="0" stop-color="#FFB0A2"/><stop offset="1" stop-color="#D0392B"/></radialGradient>
    <linearGradient id="card" x1="0" y1="0" x2="0" y2="1"><stop offset="0" stop-color="#F4F8FD"/><stop offset="1" stop-color="#E9F1FA"/></linearGradient>
  </defs>

  <rect x="14" y="14" width="792" height="612" rx="26" fill="url(#card)" stroke="#D5E1EE" stroke-width="2"/>

  <!-- タイトル -->
  <text x="410" y="74" font-family="'Hiragino Kaku Gothic ProN','Noto Sans JP',sans-serif" font-size="40" font-weight="800" fill="#1F2D3D" text-anchor="middle">マンガン酸リチウム</text>
  <text x="410" y="116" font-family="'Hiragino Kaku Gothic ProN','Noto Sans JP',sans-serif" font-size="26" fill="#5B6B7B" text-anchor="middle">新たなリチウム電池の正極材料　<tspan font-weight="800" fill="#6A2EA0">LiMn₂O₄</tspan></text>

  <!-- 結晶構造 -->
  <g transform="translate(0 10)">
    <line x1="410.0" y1="360.0" x2="476.0" y2="394.0" stroke="#AEB6C2" stroke-width="7" stroke-linecap="round"/><line x1="410.0" y1="360.0" x2="344.0" y2="394.0" stroke="#AEB6C2" stroke-width="7" stroke-linecap="round"/><line x1="410.0" y1="360.0" x2="410.0" y2="278.0" stroke="#AEB6C2" stroke-width="7" stroke-linecap="round"/><line x1="410.0" y1="278.0" x2="476.0" y2="312.0" stroke="#AEB6C2" stroke-width="7" stroke-linecap="round"/><line x1="410.0" y1="278.0" x2="344.0" y2="312.0" stroke="#AEB6C2" stroke-width="7" stroke-linecap="round"/><line x1="344.0" y1="394.0" x2="410.0" y2="428.0" stroke="#AEB6C2" stroke-width="7" stroke-linecap="round"/><line x1="344.0" y1="394.0" x2="278.0" y2="428.0" stroke="#AEB6C2" stroke-width="7" stroke-linecap="round"/><line x1="344.0" y1="394.0" x2="344.0" y2="312.0" stroke="#AEB6C2" stroke-width="7" stroke-linecap="round"/><line x1="344.0" y1="312.0" x2="410.0" y2="346.0" stroke="#AEB6C2" stroke-width="7" stroke-linecap="round"/><line x1="344.0" y1="312.0" x2="278.0" y2="346.0" stroke="#AEB6C2" stroke-width="7" stroke-linecap="round"/><line x1="278.0" y1="428.0" x2="344.0" y2="462.0" stroke="#AEB6C2" stroke-width="7" stroke-linecap="round"/><line x1="278.0" y1="428.0" x2="278.0" y2="346.0" stroke="#AEB6C2" stroke-width="7" stroke-linecap="round"/><line x1="278.0" y1="346.0" x2="344.0" y2="380.0" stroke="#AEB6C2" stroke-width="7" stroke-linecap="round"/><line x1="476.0" y1="394.0" x2="542.0" y2="428.0" stroke="#AEB6C2" stroke-width="7" stroke-linecap="round"/><line x1="476.0" y1="394.0" x2="410.0" y2="428.0" stroke="#AEB6C2" stroke-width="7" stroke-linecap="round"/><line x1="476.0" y1="394.0" x2="476.0" y2="312.0" stroke="#AEB6C2" stroke-width="7" stroke-linecap="round"/><line x1="476.0" y1="312.0" x2="542.0" y2="346.0" stroke="#AEB6C2" stroke-width="7" stroke-linecap="round"/><line x1="476.0" y1="312.0" x2="410.0" y2="346.0" stroke="#AEB6C2" stroke-width="7" stroke-linecap="round"/><line x1="410.0" y1="428.0" x2="476.0" y2="462.0" stroke="#AEB6C2" stroke-width="7" stroke-linecap="round"/><line x1="410.0" y1="428.0" x2="344.0" y2="462.0" stroke="#AEB6C2" stroke-width="7" stroke-linecap="round"/><line x1="410.0" y1="428.0" x2="410.0" y2="346.0" stroke="#AEB6C2" stroke-width="7" stroke-linecap="round"/><line x1="410.0" y1="346.0" x2="476.0" y2="380.0" stroke="#AEB6C2" stroke-width="7" stroke-linecap="round"/><line x1="410.0" y1="346.0" x2="344.0" y2="380.0" stroke="#AEB6C2" stroke-width="7" stroke-linecap="round"/><line x1="344.0" y1="462.0" x2="410.0" y2="496.0" stroke="#AEB6C2" stroke-width="7" stroke-linecap="round"/><line x1="344.0" y1="462.0" x2="344.0" y2="380.0" stroke="#AEB6C2" stroke-width="7" stroke-linecap="round"/><line x1="344.0" y1="380.0" x2="410.0" y2="414.0" stroke="#AEB6C2" stroke-width="7" stroke-linecap="round"/><line x1="542.0" y1="428.0" x2="476.0" y2="462.0" stroke="#AEB6C2" stroke-width="7" stroke-linecap="round"/><line x1="542.0" y1="428.0" x2="542.0" y2="346.0" stroke="#AEB6C2" stroke-width="7" stroke-linecap="round"/><line x1="542.0" y1="346.0" x2="476.0" y2="380.0" stroke="#AEB6C2" stroke-width="7" stroke-linecap="round"/><line x1="476.0" y1="462.0" x2="410.0" y2="496.0" stroke="#AEB6C2" stroke-width="7" stroke-linecap="round"/><line x1="476.0" y1="462.0" x2="476.0" y2="380.0" stroke="#AEB6C2" stroke-width="7" stroke-linecap="round"/><line x1="476.0" y1="380.0" x2="410.0" y2="414.0" stroke="#AEB6C2" stroke-width="7" stroke-linecap="round"/><line x1="410.0" y1="496.0" x2="410.0" y2="414.0" stroke="#AEB6C2" stroke-width="7" stroke-linecap="round"/>
    <circle cx="410.0" cy="278.0" r="27" fill="url(#gLi)" stroke="#33373D" stroke-width="2"/><circle cx="443.0" cy="295.0" r="12" fill="url(#gO)" stroke="#9A2A1E" stroke-width="1.5"/><circle cx="377.0" cy="295.0" r="12" fill="url(#gO)" stroke="#9A2A1E" stroke-width="1.5"/><circle cx="344.0" cy="312.0" r="27" fill="url(#gMn)" stroke="#33373D" stroke-width="2"/><circle cx="476.0" cy="312.0" r="27" fill="url(#gMn)" stroke="#33373D" stroke-width="2"/><circle cx="410.0" cy="319.0" r="12" fill="url(#gO)" stroke="#9A2A1E" stroke-width="1.5"/><circle cx="377.0" cy="329.0" r="12" fill="url(#gO)" stroke="#9A2A1E" stroke-width="1.5"/><circle cx="311.0" cy="329.0" r="12" fill="url(#gO)" stroke="#9A2A1E" stroke-width="1.5"/><circle cx="509.0" cy="329.0" r="12" fill="url(#gO)" stroke="#9A2A1E" stroke-width="1.5"/><circle cx="443.0" cy="329.0" r="12" fill="url(#gO)" stroke="#9A2A1E" stroke-width="1.5"/><circle cx="278.0" cy="346.0" r="27" fill="url(#gLi)" stroke="#33373D" stroke-width="2"/><circle cx="410.0" cy="346.0" r="27" fill="url(#gLi)" stroke="#33373D" stroke-width="2"/><circle cx="542.0" cy="346.0" r="27" fill="url(#gLi)" stroke="#33373D" stroke-width="2"/><circle cx="344.0" cy="353.0" r="12" fill="url(#gO)" stroke="#9A2A1E" stroke-width="1.5"/><circle cx="476.0" cy="353.0" r="12" fill="url(#gO)" stroke="#9A2A1E" stroke-width="1.5"/><circle cx="410.0" cy="360.0" r="27" fill="url(#gMn)" stroke="#33373D" stroke-width="2"/><circle cx="311.0" cy="363.0" r="12" fill="url(#gO)" stroke="#9A2A1E" stroke-width="1.5"/><circle cx="443.0" cy="363.0" r="12" fill="url(#gO)" stroke="#9A2A1E" stroke-width="1.5"/><circle cx="377.0" cy="363.0" r="12" fill="url(#gO)" stroke="#9A2A1E" stroke-width="1.5"/><circle cx="509.0" cy="363.0" r="12" fill="url(#gO)" stroke="#9A2A1E" stroke-width="1.5"/><circle cx="443.0" cy="377.0" r="12" fill="url(#gO)" stroke="#9A2A1E" stroke-width="1.5"/><circle cx="377.0" cy="377.0" r="12" fill="url(#gO)" stroke="#9A2A1E" stroke-width="1.5"/><circle cx="344.0" cy="380.0" r="27" fill="url(#gMn)" stroke="#33373D" stroke-width="2"/><circle cx="476.0" cy="380.0" r="27" fill="url(#gMn)" stroke="#33373D" stroke-width="2"/><circle cx="278.0" cy="387.0" r="12" fill="url(#gO)" stroke="#9A2A1E" stroke-width="1.5"/><circle cx="410.0" cy="387.0" r="12" fill="url(#gO)" stroke="#9A2A1E" stroke-width="1.5"/><circle cx="542.0" cy="387.0" r="12" fill="url(#gO)" stroke="#9A2A1E" stroke-width="1.5"/><circle cx="344.0" cy="394.0" r="27" fill="url(#gLi)" stroke="#33373D" stroke-width="2"/><circle cx="476.0" cy="394.0" r="27" fill="url(#gLi)" stroke="#33373D" stroke-width="2"/><circle cx="377.0" cy="397.0" r="12" fill="url(#gO)" stroke="#9A2A1E" stroke-width="1.5"/><circle cx="443.0" cy="397.0" r="12" fill="url(#gO)" stroke="#9A2A1E" stroke-width="1.5"/><circle cx="377.0" cy="411.0" r="12" fill="url(#gO)" stroke="#9A2A1E" stroke-width="1.5"/><circle cx="311.0" cy="411.0" r="12" fill="url(#gO)" stroke="#9A2A1E" stroke-width="1.5"/><circle cx="509.0" cy="411.0" r="12" fill="url(#gO)" stroke="#9A2A1E" stroke-width="1.5"/><circle cx="443.0" cy="411.0" r="12" fill="url(#gO)" stroke="#9A2A1E" stroke-width="1.5"/><circle cx="410.0" cy="414.0" r="27" fill="url(#gLi)" stroke="#33373D" stroke-width="2"/><circle cx="344.0" cy="421.0" r="12" fill="url(#gO)" stroke="#9A2A1E" stroke-width="1.5"/><circle cx="476.0" cy="421.0" r="12" fill="url(#gO)" stroke="#9A2A1E" stroke-width="1.5"/><circle cx="278.0" cy="428.0" r="27" fill="url(#gMn)" stroke="#33373D" stroke-width="2"/><circle cx="410.0" cy="428.0" r="27" fill="url(#gMn)" stroke="#33373D" stroke-width="2"/><circle cx="542.0" cy="428.0" r="27" fill="url(#gMn)" stroke="#33373D" stroke-width="2"/><circle cx="311.0" cy="445.0" r="12" fill="url(#gO)" stroke="#9A2A1E" stroke-width="1.5"/><circle cx="443.0" cy="445.0" r="12" fill="url(#gO)" stroke="#9A2A1E" stroke-width="1.5"/><circle cx="377.0" cy="445.0" r="12" fill="url(#gO)" stroke="#9A2A1E" stroke-width="1.5"/><circle cx="509.0" cy="445.0" r="12" fill="url(#gO)" stroke="#9A2A1E" stroke-width="1.5"/><circle cx="410.0" cy="455.0" r="12" fill="url(#gO)" stroke="#9A2A1E" stroke-width="1.5"/><circle cx="344.0" cy="462.0" r="27" fill="url(#gLi)" stroke="#33373D" stroke-width="2"/><circle cx="476.0" cy="462.0" r="27" fill="url(#gLi)" stroke="#33373D" stroke-width="2"/><circle cx="377.0" cy="479.0" r="12" fill="url(#gO)" stroke="#9A2A1E" stroke-width="1.5"/><circle cx="443.0" cy="479.0" r="12" fill="url(#gO)" stroke="#9A2A1E" stroke-width="1.5"/><circle cx="410.0" cy="496.0" r="27" fill="url(#gMn)" stroke="#33373D" stroke-width="2"/>
  </g>

  <!-- 凡例 -->
  <g font-family="'Hiragino Kaku Gothic ProN','Noto Sans JP',sans-serif" font-size="22" fill="#2C3A49">
    <circle cx="208" cy="592" r="13" fill="url(#gLi)" stroke="#33373D" stroke-width="1.5"/><text x="228" y="599">Li（リチウム）</text>
    <circle cx="392" cy="592" r="13" fill="url(#gMn)" stroke="#33373D" stroke-width="1.5"/><text x="412" y="599">Mn（マンガン）</text>
    <circle cx="600" cy="592" r="11" fill="url(#gO)" stroke="#9A2A1E" stroke-width="1.5"/><text x="618" y="599">O（酸素）</text>
  </g>
  <text x="410" y="560" font-family="'Hiragino Kaku Gothic ProN','Noto Sans JP',sans-serif" font-size="17" fill="#8092A4" text-anchor="middle">※ 結晶構造をわかりやすく示したイメージ図です</text>
</svg>
