<svg xmlns="http://www.w3.org/2000/svg" width="640" height="360" viewBox="0 0 640 360"><text x="70" y="210" font-family="IPAGothic" font-size="46" font-weight="bold" fill="#2F8F46" text-anchor="middle">Li</text><text x="170" y="210" font-family="IPAGothic" font-size="46" font-weight="bold" fill="#C93A3A" text-anchor="middle">O</text><text x="285" y="210" font-family="IPAGothic" font-size="46" font-weight="bold" fill="#2C4770" text-anchor="middle">Mn</text><text x="400" y="210" font-family="IPAGothic" font-size="46" font-weight="bold" fill="#C93A3A" text-anchor="middle">O</text><text x="515" y="210" font-family="IPAGothic" font-size="46" font-weight="bold" fill="#2C4770" text-anchor="middle">Mn</text><line x1="98" y1="194" x2="148" y2="194" stroke="#444444" stroke-width="3.5"/><line x1="192" y1="194" x2="249" y2="194" stroke="#444444" stroke-width="3.5"/><line x1="321" y1="194" x2="378" y2="194" stroke="#444444" stroke-width="3.5"/><line x1="422" y1="194" x2="479" y2="194" stroke="#444444" stroke-width="3.5"/><text x="285" y="105" font-family="IPAGothic" font-size="46" font-weight="bold" fill="#C93A3A" text-anchor="middle">O</text><line x1="278" y1="165" x2="278" y2="118" stroke="#444444" stroke-width="3.5"/><line x1="292" y1="165" x2="292" y2="118" stroke="#444444" stroke-width="3.5"/><text x="515" y="105" font-family="IPAGothic" font-size="46" font-weight="bold" fill="#C93A3A" text-anchor="middle">O</text><line x1="508" y1="165" x2="508" y2="118" stroke="#444444" stroke-width="3.5"/><line x1="522" y1="165" x2="522" y2="118" stroke="#444444" stroke-width="3.5"/><text x="115" y="295" font-family="IPAGothic" font-size="34" font-weight="bold" fill="#2C4770" text-anchor="start">LiMn</text><text x="186" y="304" font-family="IPAGothic" font-size="24" font-weight="bold" fill="#2C4770" text-anchor="start">2</text><text x="200" y="295" font-family="IPAGothic" font-size="34" font-weight="bold" fill="#2C4770" text-anchor="start">O</text><text x="219" y="304" font-family="IPAGothic" font-size="24" font-weight="bold" fill="#2C4770" text-anchor="start">4</text><text x="234" y="294" font-family="IPAGothic" font-size="27" font-weight="bold" fill="#2C4770" text-anchor="start">（マンガン酸リチウム）</text><text x="320" y="335" font-family="IPAGothic" font-size="19" font-weight="normal" fill="#666666" text-anchor="middle">※実際はスピネル型のイオン結晶のため、形式的な構造式表現です</text></svg>