<svg xmlns="http://www.w3.org/2000/svg" width="540" height="175" viewBox="0 0 540 175"><g transform="translate(0 0)"><rect x="10" y="10" width="520" height="155" rx="16" fill="#f2bedd" stroke="#e9a6cf" stroke-width="5"/><g transform="translate(105 88)"><rect x="-46" y="-36" width="38" height="16" rx="5" fill="#E0A800"/><rect x="-46" y="-26" width="92" height="60" rx="7" fill="#F7C948" stroke="#E0A800" stroke-width="3"/><rect x="26" y="-3" width="8" height="10" rx="2" fill="#2C4770" transform="rotate(0 30 22)"/><rect x="26" y="-3" width="8" height="10" rx="2" fill="#2C4770" transform="rotate(45 30 22)"/><rect x="26" y="-3" width="8" height="10" rx="2" fill="#2C4770" transform="rotate(90 30 22)"/><rect x="26" y="-3" width="8" height="10" rx="2" fill="#2C4770" transform="rotate(135 30 22)"/><rect x="26" y="-3" width="8" height="10" rx="2" fill="#2C4770" transform="rotate(180 30 22)"/><rect x="26" y="-3" width="8" height="10" rx="2" fill="#2C4770" transform="rotate(225 30 22)"/><rect x="26" y="-3" width="8" height="10" rx="2" fill="#2C4770" transform="rotate(270 30 22)"/><rect x="26" y="-3" width="8" height="10" rx="2" fill="#2C4770" transform="rotate(315 30 22)"/><circle cx="30" cy="22" r="19" fill="#2C4770"/><circle cx="30" cy="22" r="8" fill="#ffffff"/></g><text x="200" y="105" font-family="IPAGothic" font-size="46" font-weight="bold" letter-spacing="4" text-anchor="start" fill="#ff4fae" stroke="#ff4fae" stroke-width="12.9" stroke-linejoin="round">管理のみ</text><text x="200" y="105" font-family="IPAGothic" font-size="46" font-weight="bold" letter-spacing="4" text-anchor="start" fill="#ffffff">管理のみ</text></g></svg>