<svg xmlns="http://www.w3.org/2000/svg" width="540" height="175" viewBox="0 0 540 175"><g transform="translate(0 0)"><rect x="10" y="10" width="520" height="155" rx="16" fill="#d9bcef" stroke="#c7a3e6" stroke-width="5"/><g transform="translate(105 88)"><rect x="-4" y="-40" width="8" height="72" rx="3" fill="#2C4770"/><rect x="-46" y="-38" width="92" height="7" rx="3.5" fill="#2C4770"/><circle cx="0" cy="-42" r="6" fill="#F7C948" stroke="#E0A800" stroke-width="2"/><rect x="-28" y="30" width="56" height="9" rx="4" fill="#2C4770"/><line x1="-40" y1="-32" x2="-55" y2="-6" stroke="#2C4770" stroke-width="3"/><line x1="-40" y1="-32" x2="-25" y2="-6" stroke="#2C4770" stroke-width="3"/><path d="M -55 -6 A 15 15 0 0 0 -25 -6 Z" fill="#2C4770"/><line x1="40" y1="-32" x2="25" y2="-6" stroke="#2C4770" stroke-width="3"/><line x1="40" y1="-32" x2="55" y2="-6" stroke="#2C4770" stroke-width="3"/><path d="M 25 -6 A 15 15 0 0 0 55 -6 Z" fill="#2C4770"/></g><text x="200" y="105" font-family="IPAGothic" font-size="46" font-weight="bold" letter-spacing="4" text-anchor="start" fill="#ff4fae" stroke="#ff4fae" stroke-width="12.9" stroke-linejoin="round">常識的</text><text x="200" y="105" font-family="IPAGothic" font-size="46" font-weight="bold" letter-spacing="4" text-anchor="start" fill="#ffffff">常識的</text></g></svg>