<svg width="700" height="780" viewBox="0 0 700 780" xmlns="http://www.w3.org/2000/svg" role="img" aria-label="頑張る科学者">
  <title>頑張る科学者（ガッツポーズ）</title>
  <desc>白衣の研究者が両こぶしを握り「頑張るぞ」とガッツポーズをするオリジナルイラスト（背景透過）。</desc>

  <line x1="560.0" y1="330.0" x2="600.0" y2="330.0" stroke="#F4B400" stroke-width="6" stroke-linecap="round"/><line x1="547.3" y1="401.8" x2="584.9" y2="415.5" stroke="#F4B400" stroke-width="6" stroke-linecap="round"/><line x1="510.9" y1="465.0" x2="541.5" y2="490.7" stroke="#F4B400" stroke-width="6" stroke-linecap="round"/><line x1="455.0" y1="511.9" x2="475.0" y2="546.5" stroke="#F4B400" stroke-width="6" stroke-linecap="round"/><line x1="386.5" y1="536.8" x2="393.4" y2="576.2" stroke="#F4B400" stroke-width="6" stroke-linecap="round"/><line x1="313.5" y1="536.8" x2="306.6" y2="576.2" stroke="#F4B400" stroke-width="6" stroke-linecap="round"/><line x1="245.0" y1="511.9" x2="225.0" y2="546.5" stroke="#F4B400" stroke-width="6" stroke-linecap="round"/><line x1="189.1" y1="465.0" x2="158.5" y2="490.7" stroke="#F4B400" stroke-width="6" stroke-linecap="round"/><line x1="152.7" y1="401.8" x2="115.1" y2="415.5" stroke="#F4B400" stroke-width="6" stroke-linecap="round"/><line x1="140.0" y1="330.0" x2="100.0" y2="330.0" stroke="#F4B400" stroke-width="6" stroke-linecap="round"/><line x1="152.7" y1="258.2" x2="115.1" y2="244.5" stroke="#F4B400" stroke-width="6" stroke-linecap="round"/><line x1="189.1" y1="195.0" x2="158.5" y2="169.3" stroke="#F4B400" stroke-width="6" stroke-linecap="round"/><line x1="245.0" y1="148.1" x2="225.0" y2="113.5" stroke="#F4B400" stroke-width="6" stroke-linecap="round"/><line x1="313.5" y1="123.2" x2="306.6" y2="83.8" stroke="#F4B400" stroke-width="6" stroke-linecap="round"/><line x1="386.5" y1="123.2" x2="393.4" y2="83.8" stroke="#F4B400" stroke-width="6" stroke-linecap="round"/><line x1="455.0" y1="148.1" x2="475.0" y2="113.5" stroke="#F4B400" stroke-width="6" stroke-linecap="round"/><line x1="510.9" y1="195.0" x2="541.5" y2="169.3" stroke="#F4B400" stroke-width="6" stroke-linecap="round"/><line x1="547.3" y1="258.2" x2="584.9" y2="244.5" stroke="#F4B400" stroke-width="6" stroke-linecap="round"/>
  <ellipse cx="350" cy="724" rx="170" ry="26" fill="#000000" fill-opacity="0.10"/>

  <!-- 脚 -->
  <rect x="300" y="560" width="36" height="150" rx="12" fill="#34495E"/>
  <rect x="364" y="560" width="36" height="150" rx="12" fill="#34495E"/>
  <ellipse cx="306" cy="716" rx="34" ry="16" fill="#2B3A47"/>
  <ellipse cx="394" cy="716" rx="34" ry="16" fill="#2B3A47"/>

  <!-- 白衣（胴） -->
  <path d="M268 360 q82 -36 164 0 l24 202 q-106 34 -212 0 z" fill="#FFFFFF" stroke="#D2DAE3" stroke-width="3"/>
  <!-- シャツV -->
  <path d="M350 326 l-26 66 26 26 26 -26 z" fill="#9FC3E8"/>
  <!-- ネクタイ -->
  <path d="M342 360 h16 l-3 18 12 80 -17 18 -17 -18 12 -80 z" fill="#C0392B"/>
  <line x1="350" y1="404" x2="350" y2="556" stroke="#E2E8EF" stroke-width="3"/>
  <circle cx="350" cy="486" r="4" fill="#C7D0DA"/>
  <circle cx="350" cy="520" r="4" fill="#C7D0DA"/>

  <!-- 腕（白衣の上・ひじを張ってこぶしを構える） -->
  
    <g stroke-linecap="round" fill="none">
      <path d="M300 360 L236 446 L278 350" stroke="#D2DAE3" stroke-width="46" stroke-linejoin="round"/>
      <path d="M300 360 L236 446 L278 350" stroke="#FFFFFF" stroke-width="38" stroke-linejoin="round"/>
    </g>
  
    <g stroke-linecap="round" fill="none">
      <path d="M400 360 L464 446 L422 350" stroke="#D2DAE3" stroke-width="46" stroke-linejoin="round"/>
      <path d="M400 360 L464 446 L422 350" stroke="#FFFFFF" stroke-width="38" stroke-linejoin="round"/>
    </g>
  <g transform="translate(278 344)">
    <circle cx="0" cy="0" r="30" fill="#F7CFA6" stroke="#E2B488" stroke-width="2"/>
    <path d="M-19 -7 h38 M-19 5 h38 M-19 -19 q19 -8 38 0" stroke="#E2B488" stroke-width="3" fill="none" stroke-linecap="round"/>
  </g>
  <g transform="translate(422 344)">
    <circle cx="0" cy="0" r="30" fill="#F7CFA6" stroke="#E2B488" stroke-width="2"/>
    <path d="M-19 -7 h38 M-19 5 h38 M-19 -19 q19 -8 38 0" stroke="#E2B488" stroke-width="3" fill="none" stroke-linecap="round"/>
  </g>

  <!-- 首・頭 -->
  <rect x="332" y="300" width="36" height="34" rx="12" fill="#F2C49B"/>
  <circle cx="350" cy="232" r="72" fill="#F7CFA6"/>
  <path d="M280 214 q6 -74 70 -74 q64 0 70 74 q-32 -34 -70 -34 q-38 0 -70 34 z" fill="#4A3B2E"/>
  <!-- 額に上げたゴーグル -->
  <rect x="300" y="176" width="100" height="10" rx="5" fill="#5A6B7B"/>
  <circle cx="322" cy="182" r="18" fill="#BFE3F2" stroke="#5A6B7B" stroke-width="5"/>
  <circle cx="378" cy="182" r="18" fill="#BFE3F2" stroke="#5A6B7B" stroke-width="5"/>
  <!-- 眉・目・口・汗 -->
  <path d="M312 222 l28 10" stroke="#4A3B2E" stroke-width="6" stroke-linecap="round"/>
  <path d="M388 222 l-28 10" stroke="#4A3B2E" stroke-width="6" stroke-linecap="round"/>
  <circle cx="326" cy="244" r="7" fill="#3A2D26"/>
  <circle cx="374" cy="244" r="7" fill="#3A2D26"/>
  <path d="M330 270 q20 26 40 0 q-20 8 -40 0 z" fill="#7A3B2E"/>
  <path d="M420 210 q12 16 0 26 q-12 -10 0 -26 z" fill="#5AA9E6" stroke="#3E88C4" stroke-width="2"/>
</svg>
