<svg xmlns="http://www.w3.org/2000/svg" width="1000" height="520" viewBox="0 0 1000 520">
  <defs>
    <linearGradient id="sea" x1="0" y1="0" x2="0" y2="1">
      <stop offset="0" stop-color="#bfe3f7"/>
      <stop offset="1" stop-color="#8fc7ec"/>
    </linearGradient>
  </defs>
  <rect width="1000" height="520" fill="url(#sea)"/>
  <!-- 緯度経度のうすいグリッド -->
  <g stroke="#ffffff" stroke-opacity="0.35" stroke-width="1">
    <line x1="500.0" y1="0" x2="500.0" y2="520"/>
    <line x1="0" y1="260.0" x2="1000" y2="260.0"/>
  </g>
  <path d="M341.1,583.0 L340.4,584.8 L339.6,586.3 L334.0,585.9 L328.0,586.1 L324.7,584.9 L324.7,584.8 L323.2,583.8 L329.2,583.9 L335.0,584.2 L337.0,582.8 L338.4,581.6 L341.1,583.0 Z" fill="#5fbf74" stroke="#3f9f57" stroke-width="0.8"/>
<path d="M75.4,581.1 L70.3,581.6 L66.8,580.4 L65.3,579.2 L65.2,579.0 L63.4,578.0 L63.4,578.0 L65.1,576.7 L70.0,577.3 L72.7,578.4 L74.7,579.6 L75.4,581.1 Z" fill="#5fbf74" stroke="#3f9f57" stroke-width="0.8"/>
<path d="M379.6,576.1 L382.9,577.6 L384.0,579.7 L384.3,581.2 L384.4,583.0 L380.3,584.1 L376.0,584.9 L371.0,585.7 L365.4,586.4 L359.1,586.2 L355.6,585.1 L356.0,583.6 L361.7,582.7 L364.0,581.5 L365.7,580.1 L366.9,578.8 L368.5,577.6 L370.2,576.1 L370.2,576.1 L371.6,576.1 L375.6,575.4 L379.6,576.1 Z" fill="#5fbf74" stroke="#3f9f57" stroke-width="0.8"/>
<path d="M176.8,560.4 L180.2,561.0 L183.4,560.4 L181.9,561.6 L179.4,562.5 L175.7,562.2 L173.0,561.0 L173.0,561.0 L173.6,559.8 L176.8,560.4 Z" fill="#5fbf74" stroke="#3f9f57" stroke-width="0.8"/>
<path d="M165.2,560.4 L169.2,561.7 L167.7,561.6 L164.2,561.2 L160.6,560.3 L160.6,560.3 L162.5,559.6 L165.2,560.4 Z" fill="#5fbf74" stroke="#3f9f57" stroke-width="0.8"/>
<path d="M236.0,555.0 L239.0,555.5 L241.9,555.1 L243.5,557.1 L241.4,556.8 L238.1,556.9 L234.8,556.8 L231.2,557.0 L228.5,556.3 L227.1,554.9 L227.1,554.9 L228.8,554.3 L232.2,554.8 L236.0,555.0 Z" fill="#5fbf74" stroke="#3f9f57" stroke-width="0.8"/>
<path d="M317.5,551.6 L317.8,553.2 L317.3,554.6 L316.6,555.8 L313.4,556.3 L310.5,557.0 L307.0,556.9 L308.3,555.6 L305.1,556.0 L302.2,556.5 L300.1,555.5 L300.0,554.1 L302.9,552.7 L302.9,552.7 L304.7,552.3 L307.8,552.5 L308.6,550.7 L308.7,549.4 L308.7,546.6 L310.2,545.0 L312.7,544.5 L314.1,545.8 L314.7,547.0 L315.8,548.6 L316.7,550.1 L317.5,551.6 Z" fill="#5fbf74" stroke="#3f9f57" stroke-width="0.8"/>
<path d="M343.7,528.2 L342.5,528.9 L340.6,528.4 L338.4,528.7 L336.5,529.5 L334.6,530.4 L333.3,531.4 L332.9,532.8 L333.1,534.0 L334.3,535.2 L332.5,536.0 L330.0,536.3 L328.5,537.4 L327.0,538.5 L325.3,540.0 L324.9,541.3 L325.8,542.7 L327.2,543.8 L329.4,544.6 L331.5,545.7 L332.6,547.0 L333.1,548.3 L333.9,549.7 L335.2,550.8 L336.0,552.1 L336.3,555.3 L337.1,556.6 L337.3,557.9 L338.2,559.3 L337.8,561.1 L336.3,562.5 L334.8,563.7 L331.2,564.2 L330.0,565.4 L328.4,566.5 L324.4,567.8 L320.8,568.3 L317.5,569.1 L313.9,569.8 L311.7,571.3 L307.4,571.4 L302.7,571.3 L298.5,571.5 L294.0,571.5 L294.9,572.9 L298.9,573.5 L301.9,574.4 L303.6,575.7 L300.6,576.7 L296.0,576.4 L292.2,577.3 L292.0,578.7 L291.9,580.1 L295.1,581.2 L295.6,582.5 L299.0,583.8 L304.7,584.3 L309.5,585.3 L313.3,586.3 L318.2,587.4 L324.8,588.0 L331.3,588.9 L335.9,589.9 L340.8,591.1 L343.4,592.7 L344.7,594.0 L348.0,592.8 L352.4,591.8 L357.0,590.7 L362.6,589.8 L367.3,588.8 L373.9,588.8 L380.5,589.3 L385.8,590.1 L387.6,588.6 L391.3,587.6 L398.0,587.5 L403.3,586.8 L408.3,586.0 L413.8,585.5 L419.7,584.9 L423.9,584.0 L422.0,582.8 L420.8,581.6 L420.8,580.3 L415.7,580.5 L410.2,581.0 L405.0,581.0 L404.2,579.7 L404.6,577.1 L405.8,576.4 L409.6,575.6 L414.1,574.8 L417.3,573.8 L420.6,572.7 L423.0,571.4 L426.6,570.8 L430.2,570.3 L432.1,570.0 L436.2,569.9 L440.1,569.4 L443.4,568.8 L446.6,567.9 L449.6,567.1 L453.3,566.0 L455.6,564.9 L458.1,563.9 L458.9,562.5 L456.1,561.7 L457.0,560.3 L458.8,559.2 L461.6,558.5 L464.5,557.7 L467.2,556.6 L469.3,555.3 L470.6,553.7 L472.5,552.7 L475.7,552.9 L477.0,554.1 L480.2,554.2 L480.3,552.9 L481.7,551.6 L484.6,551.9 L485.2,553.2 L488.4,553.4 L491.9,552.8 L495.2,552.4 L498.2,552.6 L499.4,554.0 L502.3,552.9 L505.0,552.2 L508.1,551.8 L511.0,551.3 L513.8,550.5 L516.7,549.9 L519.0,549.2 L520.6,548.0 L522.6,548.9 L525.4,548.4 L527.3,550.0 L528.8,551.2 L531.9,550.5 L533.1,549.2 L535.8,548.2 L539.3,548.5 L540.3,549.7 L542.5,548.5 L545.4,548.0 L548.5,547.9 L551.4,548.0 L554.3,548.4 L557.2,548.6 L558.5,549.7 L560.2,550.8 L563.1,550.1 L566.2,550.0 L569.3,550.0 L572.2,549.9 L574.9,549.5 L577.7,549.1 L580.1,548.1 L582.6,547.5 L585.3,547.2 L587.3,546.2 L588.8,544.3 L590.3,543.2 L593.1,543.7 L594.1,544.9 L596.4,545.7 L599.2,545.5 L601.1,546.7 L603.1,547.6 L605.8,546.8 L606.7,545.3 L609.1,544.7 L611.9,543.5 L614.5,543.0 L617.6,542.4 L619.7,541.6 L621.9,540.8 L624.0,540.1 L626.5,540.5 L628.9,539.2 L630.6,538.3 L633.1,538.4 L635.3,537.6 L635.9,536.3 L638.1,535.4 L640.3,534.7 L643.0,534.2 L645.4,533.9 L647.8,534.1 L650.3,534.4 L652.4,535.4 L652.7,536.9 L655.0,538.0 L656.7,539.0 L659.8,539.4 L661.6,540.3 L663.8,541.3 L666.4,541.5 L668.5,540.8 L670.8,539.4 L673.3,540.1 L675.9,540.5 L678.4,540.9 L681.0,541.2 L683.7,541.2 L685.9,544.8 L685.8,545.7 L685.5,547.2 L682.9,548.1 L680.8,549.4 L681.2,550.8 L684.2,550.7 L683.8,552.0 L682.5,553.3 L681.2,554.7 L683.2,555.8 L686.3,556.2 L689.4,555.6 L690.9,554.2 L691.8,552.9 L693.2,551.8 L694.9,550.8 L695.6,549.6 L697.0,547.9 L698.6,547.6 L701.7,547.4 L704.3,547.0 L707.1,546.5 L708.4,545.1 L709.1,543.9 L711.0,542.6 L713.6,541.7 L715.8,541.0 L717.3,539.9 L718.8,539.2 L720.7,538.7 L723.4,539.0 L725.8,538.7 L728.4,538.3 L731.3,538.5 L733.3,537.6 L734.6,535.3 L735.6,536.2 L736.9,537.8 L739.1,538.5 L741.7,538.8 L744.2,538.4 L747.0,538.6 L749.5,538.7 L751.1,538.4 L753.4,538.6 L755.4,539.3 L757.8,538.8 L760.7,538.8 L763.1,538.4 L765.9,538.8 L767.7,537.7 L769.0,536.5 L770.9,535.6 L774.2,533.0 L775.9,533.5 L778.0,534.4 L779.8,535.7 L783.2,537.8 L785.8,537.8 L788.2,537.8 L791.1,537.4 L794.0,536.9 L796.2,536.0 L798.0,535.0 L801.0,534.9 L802.9,534.1 L805.0,534.8 L806.4,535.9 L808.3,536.9 L811.2,536.8 L813.0,537.7 L816.2,538.6 L819.6,538.9 L822.3,538.6 L824.4,537.6 L826.2,536.5 L828.6,536.2 L831.0,536.7 L833.8,537.0 L836.3,536.5 L838.7,536.5 L841.0,536.8 L843.5,537.2 L845.9,536.5 L848.8,536.0 L851.5,535.9 L854.5,535.9 L857.0,535.5 L859.4,535.3 L860.1,533.6 L860.2,532.1 L861.9,533.1 L862.3,534.6 L863.2,536.1 L864.3,537.2 L866.6,537.8 L869.6,537.6 L873.1,537.6 L875.5,537.4 L879.0,537.4 L881.5,537.3 L885.0,537.4 L888.0,537.7 L889.9,538.8 L889.3,540.1 L891.1,541.1 L893.9,541.9 L896.9,542.8 L900.4,543.4 L904.0,543.9 L906.7,544.5 L909.7,544.5 L911.4,543.4 L913.8,544.3 L915.8,545.4 L918.2,546.2 L921.4,546.6 L924.5,547.0 L925.8,548.3 L928.8,549.1 L930.9,550.3 L933.8,550.9 L936.9,550.8 L939.8,551.0 L943.0,551.0 L946.2,551.2 L949.1,551.7 L951.9,552.5 L954.7,553.2 L956.6,554.2 L956.2,555.6 L954.8,556.8 L953.6,558.3 L952.7,559.5 L951.4,561.0 L947.9,561.5 L946.4,562.7 L942.9,563.5 L941.7,564.8 L939.9,566.1 L938.0,567.2 L936.9,568.6 L936.2,569.9 L935.9,571.5 L936.0,572.7 L937.5,574.1 L938.1,575.4 L939.3,576.6 L944.3,577.1 L945.3,578.6 L940.5,579.1 L936.4,579.8 L931.4,580.0 L929.1,581.9 L928.7,583.6 L927.5,584.9 L926.1,586.1 L929.7,587.3 L931.0,588.7 L933.3,590.0 L936.5,591.1 L940.3,592.2 L944.3,593.3 L950.4,594.4 L951.7,596.1 L959.4,596.8 L959.9,597.1 L961.9,598.1 L969.3,597.2 L975.4,598.3 L980.0,599.2 L980.0,617.4 L20.0,617.4 L20.0,599.2 L20.2,599.2 L22.5,597.2 L27.3,598.3 L27.6,598.1 L28.4,597.8 L29.3,597.5 L30.1,597.2 L30.4,597.0 L30.8,597.0 L31.1,597.1 L35.0,598.5 L38.4,597.1 L39.0,596.9 L46.8,596.3 L49.3,597.1 L50.6,597.5 L54.6,598.7 L62.2,599.5 L68.2,600.6 L78.5,601.4 L86.2,600.5 L97.5,601.2 L103.9,602.2 L111.0,601.2 L118.4,600.3 L119.0,598.7 L108.5,598.5 L99.8,597.7 L97.6,596.4 L90.4,595.6 L90.9,594.1 L91.9,592.6 L92.9,591.4 L92.4,589.9 L87.9,589.0 L85.9,587.8 L81.8,586.7 L88.2,586.9 L94.4,586.3 L98.3,587.5 L103.0,586.5 L107.4,585.2 L109.6,584.0 L108.6,582.6 L105.2,581.7 L101.2,580.7 L95.8,580.5 L91.0,580.0 L85.8,579.6 L84.1,578.4 L80.6,577.3 L78.5,576.1 L77.7,572.1 L79.0,572.5 L81.4,573.6 L85.8,573.2 L90.0,572.7 L92.2,574.2 L96.4,573.9 L100.0,573.2 L103.3,572.2 L106.4,571.1 L110.4,570.7 L110.3,569.4 L109.3,568.1 L110.1,566.9 L113.6,566.3 L115.1,567.5 L119.2,566.8 L122.3,565.9 L126.1,565.8 L129.7,565.5 L133.3,564.7 L136.2,563.9 L139.4,563.2 L141.5,563.4 L143.3,563.7 L147.3,563.2 L150.9,563.8 L154.5,563.7 L158.0,563.3 L161.6,563.6 L165.6,563.9 L169.3,563.8 L173.2,563.9 L177.1,563.9 L180.8,563.8 L183.5,562.8 L186.7,562.3 L190.1,563.0 L193.3,562.4 L196.1,561.2 L197.9,562.3 L198.8,563.5 L200.5,564.6 L203.3,563.6 L206.5,564.9 L210.1,565.3 L213.2,566.2 L216.9,566.0 L220.3,565.4 L224.4,565.6 L228.0,566.0 L231.6,566.7 L233.0,565.2 L231.3,564.0 L230.0,562.8 L226.5,562.5 L225.0,561.2 L224.5,560.0 L223.5,557.4 L225.6,557.9 L229.1,558.1 L232.5,557.9 L235.6,558.4 L238.3,559.4 L239.5,560.6 L243.1,560.8 L246.5,560.4 L250.2,559.7 L253.5,559.3 L256.2,560.1 L259.8,559.8 L262.1,557.2 L264.2,558.7 L267.3,559.3 L270.6,559.0 L272.8,560.4 L276.3,560.5 L279.6,560.9 L282.7,561.6 L284.8,560.4 L285.9,559.1 L288.5,560.5 L292.2,560.2 L294.9,560.9 L296.7,562.1 L300.3,561.7 L303.1,561.0 L305.8,560.1 L309.0,559.6 L312.8,559.2 L316.2,558.7 L318.8,558.0 L320.3,556.9 L321.0,555.4 L320.7,554.0 L319.8,552.6 L318.9,551.3 L318.1,549.9 L317.4,548.7 L317.2,547.4 L317.5,546.0 L318.7,544.7 L319.8,543.3 L320.2,542.0 L319.7,540.5 L319.4,539.1 L320.7,537.6 L322.1,536.5 L323.8,535.3 L325.7,534.2 L327.8,533.2 L328.9,531.7 L330.3,530.7 L332.0,529.8 L334.6,529.6 L336.2,528.6 L338.1,527.9 L340.3,527.5 L342.2,526.6 L343.7,525.5 L345.8,525.1 L347.4,526.0 L346.4,527.1 L343.7,528.2 Z" fill="#5fbf74" stroke="#3f9f57" stroke-width="0.8"/>
<path d="M319.3,492.6 L322.8,494.6 L326.5,495.5 L325.3,497.2 L322.8,497.4 L321.4,496.2 L320.6,497.6 L318.3,498.7 L315.4,498.3 L313.4,497.2 L310.7,496.7 L307.3,494.8 L304.6,492.9 L300.9,489.1 L303.1,489.8 L306.8,492.1 L310.4,493.4 L311.8,491.8 L312.6,489.4 L315.1,488.0 L317.0,488.4 L317.0,488.4 L318.0,490.0 L319.3,492.6 Z" fill="#5fbf74" stroke="#3f9f57" stroke-width="0.8"/>
<path d="M343.9,483.1 L346.0,484.6 L345.2,485.8 L341.6,486.9 L340.4,485.7 L338.1,487.2 L336.8,485.7 L340.0,483.6 L342.3,484.5 L343.9,483.1 Z" fill="#5fbf74" stroke="#3f9f57" stroke-width="0.8"/>
<path d="M687.4,478.3 L683.3,478.5 L683.3,476.7 L683.6,475.2 L683.8,474.5 L685.5,475.6 L688.1,476.1 L688.2,476.7 L687.4,478.3 Z" fill="#5fbf74" stroke="#3f9f57" stroke-width="0.8"/>
<path d="M887.7,447.5 L890.3,448.7 L891.8,448.2 L893.8,447.5 L895.4,447.8 L895.6,451.9 L894.7,453.1 L894.4,455.8 L893.5,454.9 L891.7,457.3 L891.1,457.1 L889.5,457.0 L887.8,454.1 L887.5,451.8 L885.9,448.8 L886.0,447.2 L887.7,447.5 Z" fill="#5fbf74" stroke="#3f9f57" stroke-width="0.8"/>
<path d="M961.4,447.9 L962.0,449.3 L963.9,447.9 L964.7,449.4 L964.7,450.9 L963.7,452.5 L961.9,455.0 L960.6,456.4 L961.5,458.1 L959.5,458.1 L957.2,459.4 L956.5,461.7 L955.0,465.2 L952.9,466.7 L951.6,467.7 L949.1,467.6 L947.4,466.5 L944.5,466.2 L944.0,465.0 L945.5,462.4 L948.8,459.0 L950.5,458.3 L952.4,457.0 L954.7,455.2 L956.3,453.4 L957.5,450.9 L958.5,450.0 L958.9,448.0 L960.8,446.5 L961.4,447.9 Z" fill="#5fbf74" stroke="#3f9f57" stroke-width="0.8"/>
<path d="M965.6,431.5 L967.6,435.1 L967.6,432.8 L968.8,433.7 L969.2,436.3 L971.4,437.4 L973.2,437.7 L974.7,436.4 L976.0,436.8 L975.4,439.9 L974.6,441.9 L972.6,441.8 L971.8,442.8 L972.1,444.3 L971.7,445.0 L970.7,446.8 L969.4,449.2 L967.3,450.6 L966.8,449.7 L965.7,449.2 L967.3,446.3 L966.4,444.4 L963.5,443.1 L963.6,441.8 L965.5,440.6 L966.0,437.9 L965.9,435.7 L964.8,433.4 L964.9,432.8 L963.6,431.4 L961.5,428.3 L960.4,425.9 L961.4,425.6 L962.8,427.5 L964.9,428.4 L965.6,431.5 Z" fill="#5fbf74" stroke="#3f9f57" stroke-width="0.8"/>
<path d="M945.7,383.1 L944.6,384.0 L943.2,383.0 L941.3,381.5 L939.5,379.7 L937.8,377.2 L937.4,376.0 L938.6,376.1 L940.1,377.3 L941.2,378.4 L942.1,379.4 L944.3,381.6 L945.7,383.1 Z" fill="#5fbf74" stroke="#3f9f57" stroke-width="0.8"/>
<path d="M975.7,366.5 L976.6,367.5 L976.1,369.3 L974.5,369.8 L973.0,369.3 L972.8,367.8 L973.8,366.6 L975.0,367.1 L975.7,366.5 Z" fill="#5fbf74" stroke="#3f9f57" stroke-width="0.8"/>
<path d="M978.3,364.6 L976.6,365.4 L976.3,364.1 L977.6,363.4 L978.4,363.2 L980.0,362.1 L980.0,363.8 L978.3,364.6 Z" fill="#5fbf74" stroke="#3f9f57" stroke-width="0.8"/>
<path d="M20.2,363.6 L20.0,363.8 L20.0,362.1 L20.6,361.9 L20.2,363.6 Z" fill="#5fbf74" stroke="#3f9f57" stroke-width="0.8"/>
<path d="M947.6,363.5 L946.7,363.9 L945.8,362.4 L945.9,361.5 L947.6,363.5 Z" fill="#5fbf74" stroke="#3f9f57" stroke-width="0.8"/>
<path d="M945.6,358.2 L946.1,361.0 L945.3,360.5 L944.8,360.7 L944.4,359.8 L944.3,357.1 L945.6,358.2 Z" fill="#5fbf74" stroke="#3f9f57" stroke-width="0.8"/>
<path d="M633.5,353.4 L633.9,357.6 L634.6,359.2 L634.3,360.9 L633.9,361.9 L633.0,359.8 L632.5,360.9 L633.0,363.4 L632.7,364.9 L632.0,365.7 L631.8,368.6 L630.8,372.6 L629.5,377.4 L627.8,383.9 L626.8,388.7 L625.6,392.7 L623.4,393.6 L621.1,395.0 L619.6,394.1 L617.4,392.9 L616.7,391.1 L616.5,388.0 L615.6,385.3 L615.3,382.8 L615.8,380.3 L617.0,379.7 L617.1,378.6 L618.3,375.9 L618.6,373.7 L618.0,372.1 L617.4,369.9 L617.2,366.7 L618.2,364.8 L618.5,362.6 L619.9,362.5 L621.3,361.8 L622.3,361.2 L623.5,361.1 L625.0,359.1 L627.2,357.0 L628.0,355.3 L627.7,353.8 L628.8,354.2 L630.3,351.8 L630.3,349.7 L631.2,348.2 L632.1,349.7 L632.8,351.1 L633.5,353.4 Z" fill="#5fbf74" stroke="#3f9f57" stroke-width="0.8"/>
<path d="M882.8,354.1 L883.8,356.9 L885.5,355.6 L886.4,357.0 L887.7,358.4 L887.4,359.9 L888.0,362.9 L888.4,364.6 L889.0,365.0 L889.8,368.0 L889.5,369.7 L890.4,372.1 L893.3,373.9 L895.1,375.5 L896.9,377.0 L896.6,377.9 L898.1,380.0 L899.1,383.8 L900.2,383.0 L901.3,384.5 L901.9,384.0 L902.4,387.6 L904.3,389.8 L905.5,391.1 L907.6,393.9 L908.4,396.6 L908.4,398.6 L908.2,400.8 L909.5,403.7 L909.4,406.7 L908.9,408.3 L908.2,411.4 L908.2,413.4 L907.7,415.9 L906.5,419.0 L904.6,420.7 L903.6,423.4 L902.7,425.1 L901.9,428.1 L900.9,429.8 L900.2,432.4 L899.9,434.8 L900.0,435.9 L898.5,437.1 L895.5,437.2 L893.0,438.6 L891.8,439.9 L890.2,441.4 L888.0,439.9 L886.3,439.3 L886.8,437.5 L885.3,438.1 L883.0,440.6 L880.7,439.7 L879.1,439.2 L877.6,438.9 L875.0,437.9 L873.3,435.8 L872.8,433.2 L872.2,431.4 L870.9,430.0 L868.3,429.6 L869.2,427.9 L868.6,425.4 L867.3,427.7 L864.9,428.4 L866.3,426.5 L866.7,424.5 L867.7,422.8 L867.5,420.2 L865.3,423.2 L863.7,424.4 L862.6,427.1 L860.6,425.7 L860.6,423.8 L859.0,421.3 L857.6,420.1 L858.1,419.3 L854.6,417.2 L852.8,417.1 L850.2,415.4 L845.4,415.7 L842.0,416.9 L838.9,418.1 L836.4,417.9 L833.6,419.6 L831.3,420.4 L830.7,422.2 L829.8,423.6 L827.5,423.7 L825.8,424.0 L823.5,423.4 L821.5,423.8 L819.7,423.9 L818.1,425.8 L817.4,425.6 L816.0,426.6 L814.7,427.7 L812.8,427.6 L811.0,427.6 L808.2,425.4 L806.7,424.7 L806.8,422.7 L808.1,422.3 L808.6,421.5 L808.5,420.2 L808.8,417.8 L808.5,415.8 L807.1,412.3 L806.7,410.3 L806.8,408.4 L805.7,406.1 L805.6,405.1 L804.5,403.7 L804.1,401.0 L802.6,398.3 L802.2,396.8 L803.4,398.3 L802.5,395.1 L803.8,396.1 L804.6,397.4 L804.6,395.7 L803.3,392.9 L803.0,391.9 L802.4,390.8 L802.7,388.8 L803.2,388.0 L803.6,386.3 L803.3,384.2 L804.4,381.7 L804.6,384.4 L805.7,382.0 L807.9,380.8 L809.2,379.4 L811.2,378.1 L812.4,377.8 L813.2,378.3 L815.3,377.0 L816.9,376.6 L817.3,375.8 L818.0,375.5 L819.5,375.6 L822.3,374.6 L823.7,373.1 L824.4,371.2 L826.0,369.5 L826.1,368.1 L826.2,366.2 L828.0,363.3 L829.2,366.3 L830.3,365.6 L829.3,363.9 L830.2,362.3 L831.4,363.0 L831.7,360.4 L833.1,358.7 L833.8,357.3 L835.1,356.7 L835.2,355.8 L836.3,356.2 L836.4,355.3 L837.6,354.8 L838.8,354.3 L840.8,355.9 L842.3,358.0 L844.0,358.0 L845.7,358.3 L845.1,356.4 L846.4,353.6 L847.6,352.7 L847.2,351.9 L848.3,349.9 L849.9,348.7 L851.3,349.1 L853.5,348.5 L853.5,346.7 L851.5,345.5 L853.0,345.0 L854.7,345.9 L856.1,347.3 L858.4,348.2 L859.1,347.9 L860.8,348.9 L862.4,347.9 L863.4,348.2 L864.0,347.6 L865.2,349.3 L864.5,351.1 L863.5,352.5 L862.6,352.6 L862.9,354.0 L862.1,355.7 L861.1,357.4 L861.3,358.4 L863.5,360.3 L865.5,361.4 L866.9,362.6 L868.8,364.7 L869.6,364.7 L871.0,365.5 L871.4,366.6 L873.9,367.8 L875.7,366.6 L876.2,364.7 L876.7,363.2 L877.1,361.3 L877.9,358.6 L877.5,356.9 L877.7,355.9 L877.4,353.9 L877.7,351.3 L878.2,350.6 L877.8,349.5 L878.5,347.6 L879.0,345.7 L879.0,344.8 L880.0,343.5 L880.8,345.1 L881.0,347.3 L881.6,347.7 L881.8,349.2 L882.7,350.9 L882.9,352.9 L882.8,354.1 Z" fill="#5fbf74" stroke="#3f9f57" stroke-width="0.8"/>
<path d="M932.3,342.8 L933.1,344.0 L931.2,344.0 L930.2,341.9 L931.8,342.7 L932.3,342.8 Z" fill="#5fbf74" stroke="#3f9f57" stroke-width="0.8"/>
<path d="M821.9,342.0 L820.8,342.0 L817.2,339.6 L819.7,338.9 L821.1,340.0 L822.1,341.0 L821.9,342.0 Z" fill="#5fbf74" stroke="#3f9f57" stroke-width="0.8"/>
<path d="M928.9,340.7 L927.9,340.8 L926.3,340.4 L925.7,339.9 L925.9,338.5 L927.6,339.1 L928.5,339.8 L928.9,340.7 Z" fill="#5fbf74" stroke="#3f9f57" stroke-width="0.8"/>
<path d="M931.1,339.8 L930.7,340.4 L928.8,337.4 L928.2,335.3 L929.1,335.3 L930.1,338.1 L931.1,339.8 Z" fill="#5fbf74" stroke="#3f9f57" stroke-width="0.8"/>
<path d="M831.8,341.6 L829.5,342.4 L829.2,342.0 L829.5,340.8 L830.6,338.7 L833.2,337.3 L833.6,336.5 L835.9,335.7 L837.7,335.6 L838.6,335.2 L839.6,335.6 L838.6,336.6 L835.8,338.1 L833.6,339.1 L831.8,341.6 Z" fill="#5fbf74" stroke="#3f9f57" stroke-width="0.8"/>
<path d="M814.4,334.6 L815.4,335.5 L817.0,335.2 L817.7,336.7 L814.6,337.4 L812.7,337.8 L811.3,337.8 L812.2,335.8 L813.7,335.8 L814.4,334.6 Z" fill="#5fbf74" stroke="#3f9f57" stroke-width="0.8"/>
<path d="M827.7,334.6 L827.4,336.5 L823.3,337.5 L819.8,337.0 L819.8,335.8 L821.9,335.1 L823.6,336.1 L825.4,335.8 L827.7,334.6 Z" fill="#5fbf74" stroke="#3f9f57" stroke-width="0.8"/>
<path d="M926.3,335.4 L926.4,336.1 L924.4,334.6 L922.9,333.4 L921.9,332.2 L922.3,331.9 L923.5,332.7 L925.7,334.3 L926.3,335.4 Z" fill="#5fbf74" stroke="#3f9f57" stroke-width="0.8"/>
<path d="M920.1,332.0 L919.6,332.2 L918.4,331.4 L917.3,330.0 L917.4,329.4 L919.0,330.9 L920.1,332.0 Z" fill="#5fbf74" stroke="#3f9f57" stroke-width="0.8"/>
<path d="M789.7,330.0 L794.8,330.4 L795.4,328.9 L800.3,330.6 L801.3,332.8 L805.3,333.5 L808.5,335.5 L805.5,336.8 L802.6,335.4 L800.2,335.5 L797.4,335.3 L794.9,334.7 L791.8,333.3 L789.8,333.0 L788.7,333.4 L783.9,332.0 L783.4,330.5 L781.0,330.3 L782.8,327.0 L786.0,327.2 L788.2,328.5 L789.3,328.8 L789.7,330.0 Z" fill="#5fbf74" stroke="#3f9f57" stroke-width="0.8"/>
<path d="M859.3,328.1 L857.9,330.4 L857.6,327.8 L858.1,326.6 L858.7,325.4 L859.3,326.4 L859.3,328.1 Z" fill="#5fbf74" stroke="#3f9f57" stroke-width="0.8"/>
<path d="M915.7,330.2 L914.9,330.5 L913.8,329.2 L912.6,327.0 L912.0,324.4 L912.4,324.0 L912.7,325.1 L913.5,325.8 L914.8,328.0 L916.1,329.2 L915.7,330.2 Z" fill="#5fbf74" stroke="#3f9f57" stroke-width="0.8"/>
<path d="M905.3,325.5 L903.9,325.8 L903.5,326.8 L902.0,327.6 L900.6,328.4 L899.2,328.4 L897.0,327.4 L895.5,326.5 L895.7,325.4 L898.1,325.9 L899.6,325.6 L900.0,324.0 L900.4,323.9 L900.6,325.7 L902.2,325.5 L902.9,324.3 L904.4,323.0 L904.1,321.0 L905.7,320.9 L906.2,321.5 L906.2,323.4 L905.3,325.5 Z" fill="#5fbf74" stroke="#3f9f57" stroke-width="0.8"/>
<path d="M839.3,318.6 L838.3,319.7 L836.5,319.1 L836.0,317.6 L838.7,317.4 L839.3,318.6 Z" fill="#5fbf74" stroke="#3f9f57" stroke-width="0.8"/>
<path d="M847.9,317.3 L848.9,319.9 L846.6,318.5 L844.4,318.2 L842.9,318.5 L841.1,318.3 L841.7,316.4 L845.0,316.3 L847.9,317.3 Z" fill="#5fbf74" stroke="#3f9f57" stroke-width="0.8"/>
<path d="M908.4,322.2 L907.5,323.1 L907.0,321.0 L906.4,319.7 L905.2,318.6 L903.7,317.1 L901.8,316.1 L902.5,315.3 L903.9,316.2 L904.9,317.0 L906.0,317.8 L907.0,319.3 L908.1,320.4 L908.4,322.2 Z" fill="#5fbf74" stroke="#3f9f57" stroke-width="0.8"/>
<path d="M857.7,310.6 L858.5,316.2 L861.2,318.2 L863.4,314.6 L866.5,312.5 L868.9,312.5 L871.2,313.7 L873.1,314.9 L876.0,315.6 L880.6,318.0 L885.6,320.0 L887.4,321.7 L888.9,323.5 L889.3,325.5 L893.7,327.6 L894.4,329.5 L891.9,329.8 L892.5,332.1 L894.9,334.4 L896.6,338.1 L898.2,337.9 L898.0,339.5 L900.1,340.1 L899.3,340.7 L902.1,342.2 L901.8,343.2 L900.1,343.4 L899.4,342.5 L897.1,342.1 L894.4,341.6 L892.4,339.4 L890.8,337.5 L889.5,334.5 L886.0,333.0 L883.7,334.0 L882.1,335.1 L882.4,337.6 L880.3,338.8 L878.8,338.2 L876.1,338.1 L873.7,335.3 L871.0,334.6 L870.4,335.6 L867.0,335.7 L868.1,332.9 L869.8,331.9 L869.1,328.1 L867.8,325.2 L862.6,322.3 L860.4,322.0 L856.4,318.8 L855.6,320.5 L854.6,320.8 L854.0,319.6 L854.0,318.1 L852.0,316.4 L854.8,315.1 L856.7,315.2 L856.5,314.3 L852.6,314.3 L851.6,312.2 L849.2,311.6 L848.1,309.9 L851.6,309.0 L853.0,307.9 L857.3,309.3 L857.7,310.6 Z" fill="#5fbf74" stroke="#3f9f57" stroke-width="0.8"/>
<path d="M834.0,301.7 L831.8,305.1 L829.8,305.8 L827.3,305.1 L822.8,305.3 L820.5,305.8 L820.1,308.4 L822.5,311.5 L823.9,309.9 L828.9,308.7 L828.7,310.3 L827.5,309.8 L826.4,311.9 L824.0,313.2 L826.5,317.6 L826.1,318.8 L828.5,322.8 L828.4,325.1 L827.0,326.1 L826.0,324.9 L827.3,322.0 L824.6,323.4 L824.0,322.4 L824.3,321.1 L822.4,319.1 L822.6,315.7 L820.8,316.7 L821.0,320.8 L821.1,325.7 L819.5,326.2 L818.3,325.2 L819.1,322.0 L818.7,318.7 L817.5,318.7 L816.7,316.3 L817.8,314.0 L818.2,311.3 L819.5,306.1 L820.1,304.7 L822.4,302.1 L824.4,303.1 L827.8,303.6 L830.9,303.5 L833.5,300.9 L834.0,301.7 Z" fill="#5fbf74" stroke="#3f9f57" stroke-width="0.8"/>
<path d="M843.2,302.7 L843.0,305.7 L841.7,305.4 L841.2,307.5 L842.3,309.3 L841.6,309.7 L840.5,307.5 L839.7,303.1 L840.3,300.4 L841.2,299.1 L841.3,301.0 L842.9,301.3 L843.2,302.7 Z" fill="#5fbf74" stroke="#3f9f57" stroke-width="0.8"/>
<path d="M782.2,326.8 L779.2,326.9 L777.0,324.0 L773.6,321.2 L772.4,319.1 L770.4,316.3 L769.1,313.7 L767.0,308.9 L764.7,306.0 L763.9,303.0 L762.9,300.3 L760.5,298.1 L759.1,295.2 L757.1,293.3 L754.3,289.5 L754.1,287.7 L755.8,287.8 L760.0,288.5 L762.3,291.9 L764.4,294.2 L765.9,295.7 L768.4,299.4 L771.1,299.4 L773.3,301.8 L774.9,304.7 L776.9,306.3 L775.8,309.1 L777.4,310.3 L778.3,310.4 L778.8,312.8 L779.7,314.7 L781.7,315.0 L783.0,317.2 L782.3,321.5 L782.2,326.8 Z" fill="#5fbf74" stroke="#3f9f57" stroke-width="0.8"/>
<path d="M814.3,300.3 L817.3,303.5 L814.2,303.9 L813.3,306.3 L813.4,309.4 L810.8,311.8 L810.8,315.2 L809.7,320.5 L809.3,319.2 L806.3,320.8 L805.2,318.7 L803.3,318.5 L802.0,317.4 L798.8,318.6 L797.9,317.0 L796.1,317.1 L793.9,316.8 L793.5,312.1 L792.2,311.2 L790.9,308.2 L790.5,305.2 L790.9,302.0 L792.4,299.7 L794.4,300.9 L796.5,300.2 L797.0,297.3 L798.1,296.7 L801.3,295.9 L803.2,293.2 L804.5,291.0 L805.6,289.7 L807.9,287.8 L809.9,285.4 L811.3,282.7 L812.3,282.7 L813.7,284.4 L813.8,285.9 L815.6,286.9 L817.8,287.9 L817.6,289.3 L815.8,289.5 L816.3,291.2 L814.4,292.3 L812.8,295.4 L814.8,298.7 L814.3,300.3 Z" fill="#5fbf74" stroke="#3f9f57" stroke-width="0.8"/>
<path d="M837.0,277.6 L837.3,279.9 L837.4,281.8 L836.5,285.0 L835.6,281.4 L834.3,283.2 L835.2,285.7 L834.4,287.3 L831.3,285.3 L830.5,282.8 L831.3,281.2 L829.6,279.6 L828.8,281.0 L827.5,280.9 L825.6,282.8 L825.1,281.8 L826.2,278.9 L827.8,277.9 L829.3,276.6 L830.2,278.2 L832.3,277.2 L832.7,275.7 L834.6,275.6 L834.4,272.9 L836.6,274.6 L836.8,276.3 L837.0,277.6 Z" fill="#5fbf74" stroke="#3f9f57" stroke-width="0.8"/>
<path d="M716.6,285.2 L714.3,286.0 L713.0,283.3 L712.5,278.3 L713.7,272.7 L715.6,274.6 L716.8,277.0 L718.1,280.6 L717.7,284.2 L716.6,285.2 Z" fill="#5fbf74" stroke="#3f9f57" stroke-width="0.8"/>
<path d="M337.5,271.7 L335.3,272.1 L334.8,271.8 L335.6,270.8 L335.5,269.5 L337.1,269.0 L337.6,269.1 L337.5,271.7 Z" fill="#5fbf74" stroke="#3f9f57" stroke-width="0.8"/>
<path d="M830.6,271.1 L829.7,272.3 L828.8,274.4 L828.0,275.5 L826.3,273.1 L826.9,272.2 L827.6,271.2 L827.9,269.0 L829.3,268.8 L828.9,271.2 L830.9,267.8 L830.6,271.1 Z" fill="#5fbf74" stroke="#3f9f57" stroke-width="0.8"/>
<path d="M816.0,274.4 L812.5,277.7 L813.8,275.3 L815.7,273.2 L817.3,270.8 L818.7,267.4 L819.2,270.2 L817.4,272.1 L816.0,274.4 Z" fill="#5fbf74" stroke="#3f9f57" stroke-width="0.8"/>
<path d="M825.0,265.6 L826.6,266.6 L828.3,266.6 L828.3,268.1 L827.0,269.5 L825.3,270.6 L825.2,269.0 L825.4,267.2 L825.0,265.6 Z" fill="#5fbf74" stroke="#3f9f57" stroke-width="0.8"/>
<path d="M834.7,264.6 L835.4,268.5 L833.4,267.6 L833.4,268.7 L834.1,270.8 L832.8,271.6 L832.7,269.2 L831.9,269.0 L831.5,266.9 L833.0,267.2 L833.0,265.9 L831.4,263.3 L833.9,263.3 L834.7,264.6 Z" fill="#5fbf74" stroke="#3f9f57" stroke-width="0.8"/>
<path d="M824.1,261.5 L823.4,264.5 L822.2,262.7 L820.9,260.1 L823.1,260.2 L824.1,261.5 Z" fill="#5fbf74" stroke="#3f9f57" stroke-width="0.8"/>
<path d="M823.5,242.7 L825.2,243.7 L826.0,242.8 L826.2,243.7 L825.8,245.1 L826.7,247.6 L826.0,250.5 L824.4,251.6 L824.0,254.4 L824.6,257.1 L826.0,257.5 L827.2,257.1 L830.5,259.0 L830.3,260.9 L831.2,261.7 L830.9,263.3 L828.8,261.6 L827.8,259.8 L827.1,261.1 L825.4,259.0 L823.0,259.5 L821.7,258.8 L821.8,257.3 L822.6,256.5 L821.8,255.7 L821.5,256.9 L820.2,254.9 L819.8,253.4 L819.7,250.1 L820.8,251.2 L821.0,245.8 L821.9,242.7 L823.5,242.7 Z" fill="#5fbf74" stroke="#3f9f57" stroke-width="0.8"/>
<path d="M325.1,243.7 L324.4,244.5 L322.4,244.5 L320.8,244.6 L320.7,243.2 L321.1,242.7 L323.2,242.7 L324.6,243.0 L325.1,243.7 Z" fill="#5fbf74" stroke="#3f9f57" stroke-width="0.8"/>
<path d="M294.9,244.9 L294.1,245.5 L292.6,244.9 L291.1,243.7 L291.4,242.9 L292.5,242.7 L293.1,242.8 L294.9,243.1 L296.4,243.9 L296.8,244.9 L294.9,244.9 Z" fill="#5fbf74" stroke="#3f9f57" stroke-width="0.8"/>
<path d="M306.5,238.0 L308.8,238.5 L309.1,238.0 L311.2,238.0 L312.8,238.9 L313.5,238.8 L313.9,240.0 L315.4,239.9 L315.3,241.0 L316.5,241.1 L317.8,242.3 L316.8,243.8 L315.6,243.0 L314.3,243.1 L313.5,243.0 L313.0,243.6 L312.0,243.8 L311.5,243.0 L310.7,243.5 L309.6,245.8 L308.9,245.3 L308.8,244.3 L307.0,243.7 L305.7,244.0 L304.1,243.7 L302.9,244.4 L301.4,243.3 L301.7,242.2 L304.1,242.6 L306.1,242.9 L307.1,242.2 L305.9,240.7 L305.9,239.3 L304.2,238.8 L304.8,237.8 L306.5,238.0 Z" fill="#5fbf74" stroke="#3f9f57" stroke-width="0.8"/>
<path d="M794.2,242.1 L791.9,243.8 L789.7,242.7 L789.7,239.7 L791.0,238.2 L793.9,237.2 L795.4,237.3 L796.0,238.6 L794.9,240.1 L794.2,242.1 Z" fill="#5fbf74" stroke="#3f9f57" stroke-width="0.8"/>
<path d="M85.2,240.7 L84.8,241.3 L84.2,240.8 L84.2,239.8 L83.8,238.6 L83.9,238.2 L84.4,237.6 L84.2,237.0 L84.4,236.6 L84.6,236.7 L85.6,237.3 L86.1,237.6 L86.5,238.0 L87.2,239.3 L87.1,239.4 L86.1,240.2 L85.2,240.7 Z" fill="#5fbf74" stroke="#3f9f57" stroke-width="0.8"/>
<path d="M83.8,235.3 L82.9,235.6 L82.4,234.9 L82.1,234.6 L82.1,234.4 L82.4,234.1 L83.3,234.4 L84.0,234.9 L83.8,235.3 Z" fill="#5fbf74" stroke="#3f9f57" stroke-width="0.8"/>
<path d="M82.0,233.5 L81.9,233.9 L80.5,233.8 L80.7,233.3 L82.0,233.5 Z" fill="#5fbf74" stroke="#3f9f57" stroke-width="0.8"/>
<path d="M79.6,233.0 L79.4,233.2 L79.3,233.1 L78.3,233.0 L78.0,232.2 L77.9,232.1 L78.6,231.6 L78.8,231.8 L79.6,233.0 Z" fill="#5fbf74" stroke="#3f9f57" stroke-width="0.8"/>
<path d="M75.1,230.7 L74.8,231.1 L73.9,230.4 L74.0,230.2 L74.4,229.8 L75.0,229.9 L75.1,230.7 Z" fill="#5fbf74" stroke="#3f9f57" stroke-width="0.8"/>
<path d="M287.5,228.0 L288.6,229.3 L291.1,228.9 L292.0,229.7 L294.3,231.8 L295.9,233.4 L296.8,233.3 L298.4,234.0 L298.2,235.0 L300.2,235.2 L302.2,236.6 L301.9,237.4 L300.1,237.8 L298.3,238.0 L296.5,237.7 L292.7,238.1 L294.4,236.1 L293.4,235.2 L291.6,235.0 L290.7,234.0 L290.1,232.0 L288.6,232.2 L286.1,231.2 L285.3,230.5 L281.8,230.0 L280.9,229.3 L281.9,228.4 L279.3,228.3 L277.3,230.1 L276.2,230.1 L275.9,231.0 L274.5,231.3 L273.4,231.0 L274.8,229.9 L275.4,228.7 L276.6,227.9 L278.0,227.3 L280.0,226.9 L280.6,226.5 L282.9,226.8 L285.0,226.8 L287.5,228.0 Z" fill="#5fbf74" stroke="#3f9f57" stroke-width="0.8"/>
<path d="M293.2,224.6 L292.6,224.7 L291.9,222.8 L290.9,221.8 L291.5,219.6 L292.3,219.7 L293.2,222.6 L293.2,224.6 Z" fill="#5fbf74" stroke="#3f9f57" stroke-width="0.8"/>
<path d="M823.1,227.9 L822.0,230.7 L820.6,227.8 L820.3,225.3 L821.9,221.9 L824.0,219.3 L825.2,220.3 L824.7,222.4 L823.1,227.9 Z" fill="#5fbf74" stroke="#3f9f57" stroke-width="0.8"/>
<path d="M292.5,214.8 L289.6,215.4 L289.4,214.1 L290.6,213.8 L292.4,213.9 L292.5,214.8 Z" fill="#5fbf74" stroke="#3f9f57" stroke-width="0.8"/>
<path d="M294.7,214.8 L294.2,217.3 L293.7,216.8 L293.8,215.0 L292.6,213.6 L292.6,213.2 L294.7,214.8 Z" fill="#5fbf74" stroke="#3f9f57" stroke-width="0.8"/>
<path d="M859.0,188.7 L859.4,189.9 L857.9,192.0 L856.8,190.9 L855.4,191.7 L854.7,193.7 L853.0,192.7 L853.0,191.1 L854.5,189.0 L856.0,189.4 L857.1,187.9 L859.0,188.7 Z" fill="#5fbf74" stroke="#3f9f57" stroke-width="0.8"/>
<path d="M592.2,183.4 L590.4,184.9 L590.6,185.6 L590.7,185.8 L587.9,187.2 L586.6,186.8 L586.0,185.4 L587.3,185.3 L587.5,185.3 L587.9,184.4 L589.8,184.5 L592.2,183.4 Z" fill="#5fbf74" stroke="#3f9f57" stroke-width="0.8"/>
<path d="M563.2,183.3 L564.7,184.5 L566.7,184.3 L568.7,184.5 L568.7,185.1 L570.1,184.7 L569.8,185.7 L565.9,186.0 L566.0,185.5 L562.7,184.8 L563.2,183.3 Z" fill="#5fbf74" stroke="#3f9f57" stroke-width="0.8"/>
<path d="M541.4,174.6 L540.4,177.3 L540.8,178.4 L540.3,180.2 L538.2,178.9 L536.9,178.5 L533.1,176.7 L533.5,175.0 L536.6,175.3 L539.4,174.9 L541.4,174.6 Z" fill="#5fbf74" stroke="#3f9f57" stroke-width="0.8"/>
<path d="M524.6,164.3 L526.2,166.8 L525.8,171.3 L524.6,171.1 L523.5,172.3 L522.5,171.3 L522.4,167.2 L521.8,165.2 L523.2,165.4 L524.6,164.3 Z" fill="#5fbf74" stroke="#3f9f57" stroke-width="0.8"/>
<path d="M875.9,178.4 L874.9,181.1 L875.4,182.8 L874.0,185.3 L870.6,186.9 L865.9,187.1 L862.1,191.1 L860.3,189.7 L860.2,187.1 L855.6,187.9 L852.4,189.5 L849.3,189.6 L852.0,192.1 L850.2,198.0 L848.5,199.5 L847.2,198.1 L847.9,195.0 L846.2,194.0 L845.1,191.6 L847.6,190.6 L849.0,188.4 L851.7,186.6 L853.6,184.3 L859.0,183.2 L861.8,183.9 L864.6,177.8 L866.4,179.4 L870.3,176.0 L871.8,174.6 L873.5,170.4 L873.0,166.5 L874.1,164.4 L877.0,163.7 L878.4,168.5 L878.4,171.3 L875.9,174.8 L875.9,178.4 Z" fill="#5fbf74" stroke="#3f9f57" stroke-width="0.8"/>
<path d="M525.5,161.1 L524.6,163.7 L523.4,163.0 L522.8,160.7 L523.3,159.4 L525.0,158.1 L525.5,161.1 Z" fill="#5fbf74" stroke="#3f9f57" stroke-width="0.8"/>
<path d="M883.8,154.1 L885.6,154.8 L887.5,153.3 L888.1,157.2 L884.2,158.2 L881.8,161.6 L877.6,159.2 L876.2,163.0 L873.2,163.1 L872.8,159.6 L874.2,157.0 L877.0,156.8 L877.8,152.0 L878.6,149.3 L881.7,152.9 L883.8,154.1 Z" fill="#5fbf74" stroke="#3f9f57" stroke-width="0.8"/>
<path d="M330.2,145.9 L332.2,146.3 L334.6,146.2 L333.3,147.7 L332.3,147.9 L329.0,146.4 L328.3,145.3 L329.3,144.2 L330.2,145.9 Z" fill="#5fbf74" stroke="#3f9f57" stroke-width="0.8"/>
<path d="M335.2,137.0 L333.9,137.1 L330.4,136.0 L327.9,134.4 L328.9,134.1 L332.4,135.0 L335.1,136.4 L335.2,137.0 Z" fill="#5fbf74" stroke="#3f9f57" stroke-width="0.8"/>
<path d="M170.6,139.1 L169.3,139.6 L164.9,138.0 L164.1,136.8 L161.7,135.6 L161.3,134.6 L158.5,134.0 L157.5,132.1 L157.7,131.3 L160.5,132.0 L162.1,132.6 L164.7,132.9 L165.6,134.1 L166.9,135.8 L169.5,137.2 L170.6,139.1 Z" fill="#5fbf74" stroke="#3f9f57" stroke-width="0.8"/>
<path d="M350.3,131.6 L348.5,134.6 L350.3,133.4 L352.1,134.2 L351.1,135.4 L353.5,136.3 L354.7,135.5 L357.4,136.5 L356.6,139.1 L358.4,138.5 L358.8,140.3 L359.6,142.5 L358.5,145.5 L357.3,145.6 L355.5,145.0 L356.1,142.2 L355.4,141.7 L352.3,144.7 L350.7,144.6 L352.6,143.0 L350.0,142.1 L347.1,142.3 L342.0,142.2 L341.5,141.2 L343.2,140.0 L342.0,139.1 L344.3,137.0 L347.0,131.5 L348.7,129.5 L351.0,128.3 L352.2,128.5 L351.7,129.4 L350.3,131.6 Z" fill="#5fbf74" stroke="#3f9f57" stroke-width="0.8"/>
<path d="M146.1,120.0 L146.1,120.0 L146.1,120.0 L146.1,120.0 L148.7,119.7 L147.9,123.7 L150.2,126.4 L149.1,126.4 L147.5,124.8 L146.5,123.3 L145.2,122.2 L144.7,120.7 L144.9,119.6 L146.1,120.0 Z" fill="#5fbf74" stroke="#3f9f57" stroke-width="0.8"/>
<path d="M883.1,131.4 L885.7,137.5 L881.8,136.4 L880.2,141.3 L882.8,144.9 L882.7,147.3 L880.7,145.2 L878.9,147.9 L878.4,145.0 L878.7,141.6 L878.4,137.9 L879.0,135.3 L879.1,130.7 L877.6,127.3 L877.8,122.6 L880.3,121.0 L879.2,119.4 L880.4,118.9 L881.1,121.2 L882.0,124.5 L882.0,127.9 L883.1,131.4 Z" fill="#5fbf74" stroke="#3f9f57" stroke-width="0.8"/>
<path d="M481.9,126.2 L477.2,128.2 L473.4,127.7 L475.6,124.1 L474.2,120.6 L477.8,117.8 L479.8,116.2 L482.0,116.1 L484.9,118.2 L483.5,120.6 L483.9,123.1 L481.9,126.2 Z" fill="#5fbf74" stroke="#3f9f57" stroke-width="0.8"/>
<path d="M533.8,114.6 L532.2,117.4 L529.4,115.4 L529.1,114.0 L533.0,112.9 L533.8,114.6 Z" fill="#5fbf74" stroke="#3f9f57" stroke-width="0.8"/>
<path d="M92.0,109.4 L89.3,110.7 L88.0,109.8 L87.5,108.2 L90.0,107.0 L91.4,106.4 L93.2,106.7 L94.3,107.7 L92.0,109.4 Z" fill="#5fbf74" stroke="#3f9f57" stroke-width="0.8"/>
<path d="M492.0,104.1 L489.1,107.9 L491.9,107.4 L494.8,107.4 L494.1,110.2 L491.7,113.3 L494.4,113.5 L497.0,118.0 L498.9,118.5 L500.5,122.5 L501.3,123.8 L504.5,124.5 L504.2,126.7 L502.8,127.7 L503.9,129.5 L501.5,131.3 L497.9,131.3 L493.4,132.2 L492.1,131.6 L490.4,133.2 L487.9,132.8 L486.0,134.1 L484.6,133.4 L488.5,129.8 L490.9,129.0 L486.7,128.5 L486.0,127.1 L488.7,126.0 L487.3,124.1 L487.8,121.9 L491.8,122.2 L492.1,120.2 L490.3,118.0 L487.1,117.4 L486.4,116.5 L487.4,114.9 L486.5,114.0 L485.1,115.6 L484.9,112.3 L483.6,110.5 L484.6,107.0 L486.6,104.2 L488.8,104.4 L492.0,104.1 Z" fill="#5fbf74" stroke="#3f9f57" stroke-width="0.8"/>
<path d="M58.5,99.7 L56.8,100.3 L55.1,99.6 L53.5,98.7 L56.1,98.1 L58.2,98.4 L58.5,99.7 Z" fill="#5fbf74" stroke="#3f9f57" stroke-width="0.8"/>
<path d="M288.6,92.0 L287.6,93.8 L286.4,93.5 L285.7,92.5 L285.8,92.2 L286.9,91.2 L287.9,91.3 L288.6,92.0 Z" fill="#5fbf74" stroke="#3f9f57" stroke-width="0.8"/>
<path d="M281.6,90.1 L278.5,92.0 L276.6,91.9 L276.0,91.0 L278.0,89.4 L281.7,89.4 L281.6,90.1 Z" fill="#5fbf74" stroke="#3f9f57" stroke-width="0.8"/>
<path d="M42.0,86.4 L43.7,87.0 L45.4,86.7 L47.5,87.6 L50.2,88.0 L49.9,88.4 L47.9,89.1 L45.9,88.4 L44.9,87.8 L42.5,88.0 L41.9,87.7 L42.0,86.4 Z" fill="#5fbf74" stroke="#3f9f57" stroke-width="0.8"/>
<path d="M272.9,79.9 L273.4,81.4 L274.8,80.9 L276.3,81.8 L279.2,83.0 L282.3,84.0 L282.5,85.7 L284.5,85.4 L286.4,86.6 L284.0,87.6 L279.9,86.8 L278.4,85.3 L275.7,87.1 L271.9,88.9 L271.0,86.9 L267.4,87.2 L269.7,85.5 L270.1,82.8 L271.0,79.6 L272.9,79.9 Z" fill="#5fbf74" stroke="#3f9f57" stroke-width="0.8"/>
<path d="M461.3,77.1 L460.7,79.4 L463.7,81.7 L460.2,84.4 L452.5,86.7 L450.3,87.4 L446.7,86.8 L439.3,85.7 L441.9,84.2 L436.1,82.5 L440.8,81.9 L440.7,80.9 L435.1,80.0 L436.9,77.8 L441.0,77.3 L445.1,79.6 L449.2,77.7 L452.5,78.7 L456.9,76.9 L461.3,77.1 Z" fill="#5fbf74" stroke="#3f9f57" stroke-width="0.8"/>
<path d="M297.7,74.7 L294.7,74.9 L294.0,73.2 L295.2,71.3 L297.6,70.8 L299.7,71.8 L299.7,73.2 L299.4,73.7 L297.7,74.7 Z" fill="#5fbf74" stroke="#3f9f57" stroke-width="0.8"/>
<path d="M33.3,76.7 L35.1,77.5 L34.5,75.0 L41.7,75.6 L46.9,78.8 L44.3,80.3 L39.9,80.6 L39.9,84.0 L38.8,84.7 L36.3,84.6 L34.3,83.4 L30.7,82.4 L30.1,80.9 L27.4,80.4 L24.4,80.8 L22.9,79.6 L23.5,78.3 L20.3,79.1 L21.5,80.8 L20.0,82.2 L20.0,68.5 L26.5,71.1 L33.5,74.5 L33.3,76.7 Z" fill="#5fbf74" stroke="#3f9f57" stroke-width="0.8"/>
<path d="M244.9,68.0 L243.3,69.2 L239.7,68.1 L237.5,68.5 L233.9,67.0 L236.2,65.9 L238.1,64.4 L240.9,65.4 L242.5,66.0 L243.3,66.7 L244.9,68.0 Z" fill="#5fbf74" stroke="#3f9f57" stroke-width="0.8"/>
<path d="M980.0,62.0 L977.1,62.2 L976.6,61.1 L980.0,59.7 L980.0,62.0 Z" fill="#5fbf74" stroke="#3f9f57" stroke-width="0.8"/>
<path d="M23.5,61.8 L20.0,62.0 L20.0,59.7 L20.3,59.5 L22.6,59.5 L26.5,60.5 L26.2,61.0 L23.5,61.8 Z" fill="#5fbf74" stroke="#3f9f57" stroke-width="0.8"/>
<path d="M258.5,66.6 L258.5,70.2 L262.1,67.5 L265.3,69.7 L264.5,72.2 L267.1,74.6 L269.9,72.1 L271.8,69.1 L271.9,65.3 L275.7,65.6 L279.7,66.1 L283.3,67.8 L283.4,69.5 L281.4,71.3 L283.3,73.2 L283.0,74.9 L277.7,77.3 L274.0,77.8 L271.3,76.8 L270.5,78.5 L267.9,81.4 L267.1,82.9 L264.0,85.3 L260.2,85.5 L258.1,87.0 L257.9,89.2 L254.8,89.6 L251.6,92.4 L248.7,96.3 L247.7,99.0 L247.5,103.1 L251.4,103.6 L252.6,106.9 L253.9,109.5 L257.6,108.8 L262.6,110.3 L265.2,111.6 L267.1,113.2 L270.5,114.2 L273.3,115.6 L277.7,115.8 L280.6,116.2 L280.2,119.2 L281.0,122.6 L282.9,126.5 L286.9,129.8 L289.0,128.7 L290.4,125.1 L289.0,119.7 L287.1,117.8 L291.4,116.2 L294.4,113.8 L295.9,111.4 L295.7,109.1 L293.9,106.2 L290.6,103.6 L293.8,99.9 L292.6,96.8 L291.7,91.4 L293.6,90.6 L298.1,91.6 L300.9,91.9 L303.1,91.0 L305.6,92.2 L308.9,94.2 L309.7,95.5 L314.4,95.8 L314.3,98.7 L315.2,103.0 L317.7,103.6 L319.6,105.6 L323.5,103.7 L326.0,99.9 L327.8,98.3 L329.9,101.3 L333.3,105.8 L336.3,109.9 L335.2,112.1 L338.8,114.0 L341.1,116.0 L345.4,116.9 L347.1,118.0 L348.2,120.9 L350.2,121.4 L351.3,122.7 L351.5,126.5 L349.6,127.8 L347.7,129.1 L343.3,130.3 L339.9,133.1 L335.4,133.7 L329.7,133.0 L325.7,132.9 L322.9,133.2 L320.7,135.6 L317.3,137.2 L313.5,141.7 L310.4,144.9 L312.7,144.4 L316.9,139.8 L322.5,137.0 L326.5,136.6 L328.9,138.3 L326.4,140.6 L327.2,144.3 L328.1,146.9 L331.5,148.7 L335.9,148.2 L338.6,144.3 L338.8,146.8 L340.5,148.0 L337.2,150.3 L331.3,152.4 L328.7,153.8 L325.7,156.2 L323.7,156.0 L323.6,153.1 L328.2,150.2 L323.9,150.3 L321.0,150.7 L321.4,151.9 L318.6,153.6 L315.8,154.7 L313.0,155.8 L311.5,158.0 L311.2,158.6 L311.1,160.4 L312.0,162.3 L313.1,162.3 L312.8,161.1 L313.6,161.8 L313.4,162.8 L311.6,163.4 L310.3,163.3 L308.4,163.9 L307.2,164.1 L305.7,164.3 L303.4,165.3 L307.4,164.6 L308.1,165.3 L304.4,166.3 L302.7,166.3 L302.8,165.9 L302.0,166.9 L302.8,167.0 L302.2,169.5 L300.3,172.2 L300.1,171.3 L299.5,171.1 L298.6,170.2 L299.1,172.1 L299.8,172.7 L299.8,174.0 L299.0,175.3 L297.5,178.1 L297.3,178.0 L298.1,175.6 L296.7,174.3 L296.4,171.4 L295.9,172.9 L296.5,175.1 L294.8,174.6 L296.5,175.7 L296.6,179.0 L297.4,179.2 L297.7,180.4 L298.1,183.9 L296.4,186.4 L293.6,187.4 L291.9,189.5 L290.5,189.7 L289.2,191.0 L288.8,192.1 L285.9,194.4 L284.4,196.0 L283.1,198.0 L282.7,200.5 L283.2,202.9 L284.1,205.9 L285.2,208.3 L285.3,209.8 L286.5,213.8 L286.4,216.1 L286.3,217.5 L285.7,219.6 L284.9,220.0 L283.5,219.6 L283.1,218.1 L282.1,217.3 L280.7,214.3 L279.5,211.7 L279.1,210.3 L279.6,208.0 L278.9,206.1 L276.8,203.2 L275.7,202.7 L273.0,204.3 L272.6,204.1 L271.3,202.5 L269.6,201.6 L266.6,202.1 L264.2,201.7 L262.2,201.9 L261.1,202.4 L261.6,203.4 L261.5,204.8 L262.1,205.5 L261.6,205.9 L260.6,205.4 L259.6,206.1 L257.7,206.0 L255.7,204.1 L253.3,204.6 L251.4,203.8 L249.7,204.0 L247.5,204.8 L245.1,207.4 L242.4,208.9 L241.0,210.5 L240.3,212.1 L240.3,214.5 L240.5,216.1 L241.0,217.3 L241.0,217.3 L241.0,217.3 L239.9,220.3 L239.5,222.8 L239.3,227.4 L239.0,229.1 L239.5,231.0 L240.3,232.7 L240.8,235.4 L242.6,237.9 L243.2,239.9 L244.3,241.6 L247.1,242.5 L248.2,244.0 L250.5,243.0 L252.6,242.6 L254.6,242.0 L256.2,241.4 L257.9,240.0 L258.6,238.0 L258.8,235.1 L259.3,234.1 L261.1,233.2 L263.9,232.4 L266.2,232.5 L267.9,232.2 L268.5,233.0 L268.4,234.6 L267.0,236.7 L266.3,238.8 L266.8,239.4 L266.4,240.9 L265.8,243.6 L265.1,242.7 L264.5,242.7 L264.5,243.2 L265.0,243.3 L265.0,244.2 L264.6,245.7 L264.8,246.2 L264.5,247.5 L264.7,247.8 L264.4,249.5 L263.9,250.5 L263.4,250.6 L262.9,251.8 L263.7,252.4 L264.0,251.9 L264.7,252.3 L265.0,252.4 L265.6,251.8 L266.4,251.8 L266.6,252.1 L267.0,251.9 L268.3,252.2 L269.5,252.1 L270.3,251.7 L270.7,251.3 L271.5,251.5 L272.1,251.8 L272.8,251.7 L273.4,251.4 L274.6,251.9 L275.0,251.9 L275.8,252.6 L276.6,253.4 L277.6,253.9 L278.3,254.8 L278.0,255.2 L277.9,255.9 L278.2,257.2 L277.6,258.4 L277.3,259.8 L277.2,261.3 L277.3,262.2 L277.4,263.7 L277.0,264.1 L276.7,265.5 L276.9,266.5 L276.4,267.3 L276.5,268.3 L276.9,268.8 L277.6,270.7 L278.6,272.1 L279.9,273.6 L280.8,274.8 L280.8,275.6 L281.8,275.7 L282.1,275.4 L282.8,276.3 L284.1,276.0 L285.3,275.2 L286.9,274.5 L287.8,273.4 L289.3,273.6 L289.2,274.0 L290.7,274.1 L291.9,274.7 L292.7,275.7 L293.7,276.7 L295.1,276.8 L297.1,274.4 L298.2,274.0 L298.2,272.9 L298.7,269.9 L300.2,268.3 L301.9,268.3 L302.1,267.6 L304.2,267.8 L306.3,266.1 L307.4,265.3 L308.7,263.7 L309.6,263.9 L310.3,264.8 L309.8,266.0 L309.7,266.8 L308.1,267.2 L309.0,268.7 L309.0,270.5 L307.8,272.6 L308.8,275.3 L310.0,275.1 L310.6,272.6 L309.7,271.4 L309.6,268.7 L312.9,267.3 L312.5,265.7 L313.5,264.6 L314.4,267.0 L316.3,267.1 L318.0,269.0 L318.1,270.2 L320.5,270.2 L323.4,269.8 L324.9,271.4 L327.0,271.8 L328.5,270.7 L328.5,269.9 L331.8,269.7 L335.0,269.6 L332.7,270.6 L333.6,272.3 L335.8,272.5 L337.8,274.2 L338.2,277.0 L339.6,276.9 L340.6,277.7 L342.4,279.0 L344.0,281.2 L344.1,283.0 L345.1,283.1 L346.6,284.8 L347.6,286.0 L350.8,286.7 L351.1,286.1 L353.2,285.8 L356.1,286.7 L357.0,287.1 L359.0,287.9 L361.8,290.9 L362.2,292.3 L363.2,292.1 L363.8,294.0 L365.3,300.1 L366.7,300.6 L366.8,303.0 L364.8,305.8 L365.6,306.9 L370.3,307.4 L370.4,310.9 L372.5,308.6 L375.8,309.9 L380.3,312.0 L381.6,314.0 L381.1,315.9 L384.2,314.8 L389.4,316.7 L393.4,316.5 L397.3,319.4 L400.7,323.3 L402.8,324.3 L405.1,324.4 L406.0,325.5 L406.9,329.9 L407.4,332.0 L406.3,337.7 L405.0,339.9 L401.2,344.7 L399.5,348.6 L397.5,351.6 L396.9,351.7 L396.1,354.3 L396.3,360.7 L395.6,366.0 L395.3,368.3 L394.4,369.7 L394.0,374.3 L391.3,378.8 L390.8,382.4 L388.7,383.9 L388.0,385.9 L385.1,385.9 L380.9,387.3 L379.1,388.8 L376.1,389.8 L372.9,392.6 L370.7,396.0 L370.3,398.6 L370.7,400.5 L370.2,404.0 L369.6,405.6 L367.8,407.5 L364.8,413.6 L362.5,416.4 L360.7,418.0 L359.4,421.3 L357.7,423.2 L356.5,425.4 L353.5,427.3 L351.5,426.6 L350.1,427.0 L347.6,425.5 L345.8,425.6 L344.2,423.7 L344.0,425.5 L347.4,428.5 L347.0,430.9 L348.7,432.4 L348.6,434.0 L346.0,438.5 L342.0,440.3 L336.7,441.0 L333.8,440.7 L334.3,442.8 L333.8,445.3 L334.3,447.1 L332.7,448.3 L329.9,448.8 L327.4,447.5 L326.4,448.4 L326.7,451.9 L328.5,452.9 L330.0,451.8 L330.8,453.6 L328.3,454.7 L326.2,456.8 L325.8,460.3 L325.2,462.1 L322.6,462.2 L320.5,463.9 L319.8,466.5 L322.4,469.0 L325.0,469.7 L324.0,472.8 L320.9,474.8 L319.2,478.8 L316.7,480.2 L315.6,481.8 L316.5,485.4 L318.3,487.4 L317.1,487.2 L314.8,487.2 L313.5,488.0 L311.1,489.3 L310.6,492.5 L309.5,492.6 L306.5,491.5 L303.5,489.1 L300.1,487.1 L299.3,484.9 L300.1,482.9 L298.7,480.6 L298.4,474.7 L299.5,471.4 L302.3,468.7 L298.3,467.7 L300.8,464.7 L301.7,458.9 L304.7,460.1 L306.1,453.0 L304.3,452.1 L303.5,456.4 L301.8,455.9 L302.6,450.9 L303.5,444.5 L304.8,442.2 L304.0,438.8 L303.8,434.9 L304.9,434.8 L306.5,429.2 L308.4,423.7 L309.5,418.6 L308.9,413.4 L309.7,410.5 L309.4,406.3 L310.9,402.1 L311.4,395.4 L312.3,388.2 L313.1,380.5 L312.9,374.8 L312.3,370.0 L309.7,368.0 L309.4,366.6 L304.1,363.1 L299.4,359.3 L297.3,357.2 L296.2,354.4 L296.6,353.4 L294.4,348.8 L291.8,342.5 L289.2,335.6 L288.1,334.0 L287.3,331.5 L285.2,329.2 L283.3,327.8 L284.2,326.3 L282.9,323.0 L283.7,320.6 L285.9,318.4 L287.3,315.8 L286.7,314.3 L285.7,315.9 L284.1,314.4 L284.6,313.4 L284.2,310.3 L285.1,309.7 L285.6,307.6 L286.6,305.4 L286.4,304.0 L287.9,303.2 L289.7,301.9 L289.4,300.8 L290.4,300.5 L290.2,298.8 L290.9,297.5 L292.2,297.3 L293.3,295.1 L294.3,293.3 L293.3,292.5 L293.8,290.5 L293.2,287.3 L293.8,286.4 L293.4,283.5 L292.3,281.7 L291.4,280.7 L290.9,278.8 L291.5,277.9 L290.8,277.7 L290.3,276.5 L289.0,275.6 L287.8,275.8 L287.3,277.0 L286.2,277.8 L285.6,278.0 L285.4,278.7 L286.7,280.6 L285.9,281.0 L285.5,281.5 L284.3,281.7 L283.8,279.6 L283.5,280.2 L282.6,280.0 L282.1,278.6 L281.0,278.4 L280.3,278.0 L279.1,278.0 L279.1,278.7 L278.8,278.2 L277.3,277.4 L276.8,276.7 L277.1,276.1 L277.0,275.4 L276.2,274.5 L275.2,273.9 L274.3,273.4 L274.1,272.4 L273.4,271.8 L273.6,272.8 L273.0,273.6 L272.4,272.7 L271.6,272.3 L271.2,271.6 L271.2,270.6 L271.6,269.5 L270.8,269.0 L271.4,268.3 L270.5,267.2 L269.3,265.8 L268.7,264.7 L267.6,263.6 L266.2,262.0 L266.5,261.5 L267.0,262.0 L267.2,261.8 L266.7,260.7 L265.9,260.4 L265.6,261.2 L264.0,261.2 L263.1,260.8 L262.0,260.1 L260.5,259.9 L259.7,259.2 L258.4,258.6 L256.7,258.5 L255.5,257.8 L254.1,256.4 L251.0,252.7 L249.7,251.6 L247.5,250.7 L246.0,250.9 L243.9,252.2 L242.5,252.6 L240.6,251.7 L238.6,251.0 L236.1,249.4 L234.1,248.9 L231.1,247.3 L228.9,245.7 L228.2,244.8 L226.7,244.5 L224.0,243.5 L222.9,241.9 L220.0,239.9 L218.7,237.7 L218.0,236.1 L218.9,235.7 L218.7,234.7 L219.3,233.8 L219.3,232.6 L218.4,231.1 L218.2,229.7 L217.3,228.0 L214.9,224.5 L212.2,221.8 L210.9,219.7 L208.6,218.3 L208.1,217.4 L208.6,215.3 L207.2,214.5 L205.6,212.8 L205.0,210.4 L203.5,210.1 L202.0,208.3 L200.7,206.6 L200.6,205.6 L199.2,202.9 L198.2,200.3 L198.3,199.0 L196.3,197.6 L195.5,197.8 L193.9,196.8 L193.5,198.2 L193.9,199.9 L194.2,202.5 L195.1,203.9 L197.1,206.3 L197.5,207.1 L197.9,207.3 L198.3,208.5 L198.8,208.5 L199.3,210.7 L200.1,211.6 L200.7,212.8 L202.4,214.5 L203.2,217.8 L204.0,219.3 L204.8,220.9 L204.9,222.7 L206.2,222.8 L207.3,224.4 L208.2,225.9 L208.2,226.6 L207.1,227.8 L206.6,227.8 L205.9,225.7 L204.1,223.7 L202.2,222.1 L200.8,221.2 L200.9,218.7 L200.5,216.8 L199.3,215.7 L197.4,214.2 L197.1,214.6 L196.4,213.7 L194.8,212.9 L193.2,210.9 L193.4,210.6 L194.5,210.8 L195.5,209.5 L195.6,208.0 L193.5,205.5 L192.0,204.6 L191.0,202.4 L190.0,200.1 L188.7,197.4 L187.7,194.3 L187.2,192.5 L185.5,190.5 L184.2,190.1 L183.9,189.1 L182.5,188.9 L181.5,188.0 L179.0,187.7 L178.3,187.1 L178.0,185.2 L175.4,181.7 L173.2,176.9 L173.3,176.1 L172.1,175.0 L170.1,172.1 L169.7,169.3 L168.3,167.4 L168.9,164.5 L168.8,161.6 L167.9,158.9 L169.0,155.7 L169.6,149.4 L169.1,144.8 L168.3,141.8 L167.5,140.2 L167.8,139.6 L171.7,140.7 L173.1,144.0 L173.8,143.1 L173.3,140.2 L172.4,137.4 L172.1,137.4 L166.9,134.0 L165.0,132.5 L160.2,131.1 L158.7,128.0 L159.1,125.9 L155.7,124.4 L155.2,121.7 L152.0,119.2 L151.9,117.4 L150.4,116.1 L148.1,115.0 L147.3,112.0 L143.9,109.2 L142.5,105.9 L139.9,105.7 L135.7,105.6 L132.5,104.6 L127.0,101.0 L124.5,100.4 L119.8,99.1 L116.1,99.4 L110.9,97.8 L107.7,96.4 L104.7,97.1 L105.3,99.5 L103.8,99.7 L100.7,100.4 L98.4,101.6 L95.4,102.3 L95.0,100.3 L96.2,96.9 L99.1,95.9 L98.3,95.0 L94.9,96.9 L93.1,99.2 L89.3,101.7 L91.2,103.3 L88.7,105.8 L85.8,107.3 L83.2,108.3 L82.5,109.9 L78.4,111.6 L77.5,113.3 L74.4,114.7 L72.6,114.5 L70.1,115.4 L67.4,116.6 L65.1,117.8 L60.6,118.7 L60.2,118.2 L63.1,116.6 L65.7,115.5 L68.5,113.6 L71.8,113.2 L73.1,111.8 L76.8,109.7 L77.4,109.0 L79.4,107.8 L79.9,105.2 L81.2,103.2 L78.1,104.2 L77.3,103.6 L75.8,104.9 L74.1,103.1 L73.4,104.4 L72.4,102.6 L69.7,104.0 L68.1,104.0 L67.9,102.0 L68.3,100.7 L66.6,99.5 L63.2,100.1 L60.9,98.5 L59.1,97.7 L59.1,95.7 L57.0,94.2 L58.0,92.3 L60.2,90.3 L61.2,88.6 L63.3,88.3 L65.2,88.9 L67.3,87.2 L69.2,87.5 L71.3,86.4 L70.8,84.8 L69.3,84.2 L71.3,82.9 L69.6,82.9 L66.8,83.7 L66.0,84.4 L63.9,83.7 L60.1,84.1 L56.2,83.2 L55.1,81.9 L51.7,79.8 L55.5,78.4 L61.4,76.7 L63.6,76.7 L63.2,78.4 L68.9,78.3 L66.7,76.2 L63.4,74.8 L61.5,73.1 L59.0,71.7 L55.3,70.6 L56.8,68.7 L61.5,68.6 L64.9,67.1 L65.5,65.4 L68.2,63.7 L70.8,63.3 L75.9,61.8 L78.3,62.0 L82.5,60.2 L86.5,60.9 L88.4,62.5 L89.6,61.8 L94.1,62.0 L93.9,62.8 L98.0,63.4 L100.7,63.1 L106.4,64.2 L111.5,64.5 L113.5,64.9 L117.1,64.4 L121.1,65.4 L124.0,65.9 L129.0,66.7 L133.2,68.4 L136.0,68.7 L138.3,67.3 L141.6,66.2 L145.5,66.6 L149.5,65.1 L153.9,64.2 L155.7,65.7 L157.7,64.8 L158.3,63.2 L160.1,63.6 L164.6,66.7 L168.2,64.3 L168.6,67.0 L171.8,66.4 L172.8,65.4 L176.1,65.6 L180.2,67.0 L186.4,68.3 L190.1,68.9 L192.7,68.7 L196.3,70.4 L192.5,72.1 L197.3,72.9 L204.5,72.5 L206.8,71.9 L209.7,73.9 L212.6,72.2 L209.8,70.7 L211.6,69.5 L214.8,69.4 L216.9,69.0 L219.1,69.9 L221.8,71.7 L224.7,71.5 L229.5,73.0 L233.6,72.5 L237.5,72.6 L237.2,70.4 L239.5,69.8 L243.7,71.0 L243.7,74.2 L245.4,71.5 L247.5,71.6 L248.7,68.1 L245.9,66.0 L242.7,64.6 L243.0,60.8 L246.1,58.3 L249.6,58.8 L252.3,60.3 L255.9,64.2 L253.6,65.9 L258.5,66.6 Z" fill="#5fbf74" stroke="#3f9f57" stroke-width="0.8"/>
<path d="M195.6,54.1 L194.2,55.7 L200.2,54.7 L203.9,56.4 L206.9,54.7 L209.3,55.8 L211.5,59.2 L212.8,57.8 L210.9,54.2 L213.3,53.7 L215.9,54.3 L218.9,55.7 L220.6,59.0 L221.4,61.5 L225.9,63.2 L230.7,64.8 L230.4,66.3 L226.1,66.6 L227.8,67.9 L226.9,69.2 L222.0,68.7 L217.4,67.7 L214.3,67.9 L209.3,69.1 L201.4,69.7 L197.8,69.9 L196.4,68.3 L192.7,67.4 L190.4,67.8 L187.1,65.0 L188.9,64.7 L193.0,64.1 L196.7,64.2 L200.2,63.6 L195.1,62.8 L189.4,63.1 L185.6,63.0 L184.2,61.8 L190.4,60.4 L186.3,60.4 L181.6,59.5 L183.8,56.9 L185.7,55.5 L192.8,53.4 L195.6,54.1 Z" fill="#5fbf74" stroke="#3f9f57" stroke-width="0.8"/>
<path d="M221.3,53.1 L219.0,55.4 L214.8,52.9 L215.7,52.5 L219.3,52.3 L221.3,53.1 Z" fill="#5fbf74" stroke="#3f9f57" stroke-width="0.8"/>
<path d="M296.4,54.2 L296.7,55.1 L293.8,55.0 L291.0,55.0 L288.0,55.4 L287.3,55.2 L284.3,53.4 L284.4,52.1 L285.7,51.9 L291.8,52.3 L296.4,54.2 Z" fill="#5fbf74" stroke="#3f9f57" stroke-width="0.8"/>
<path d="M269.2,54.0 L271.3,56.1 L273.7,53.4 L280.5,51.9 L285.1,55.5 L284.7,57.8 L289.9,56.8 L292.5,55.4 L298.4,57.1 L302.1,58.8 L302.4,60.3 L307.4,59.5 L310.1,61.7 L316.6,63.1 L318.9,64.5 L321.4,67.7 L316.5,69.3 L322.8,71.6 L327.0,72.3 L330.9,75.5 L335.1,75.7 L334.2,78.2 L329.6,82.2 L326.3,80.7 L322.1,77.4 L318.6,77.8 L318.3,79.8 L321.1,81.8 L324.7,83.4 L325.8,84.3 L327.5,87.7 L326.6,90.2 L323.3,89.3 L316.6,86.5 L320.3,89.5 L323.1,91.6 L323.6,92.8 L316.3,91.4 L310.6,89.4 L307.4,87.7 L308.3,86.7 L304.3,84.9 L300.4,83.3 L300.5,84.3 L292.8,84.8 L290.5,83.6 L292.3,81.1 L297.3,81.0 L302.8,80.6 L301.9,79.4 L302.8,77.6 L306.3,74.3 L305.5,72.7 L304.5,71.6 L300.4,69.9 L295.0,68.7 L296.7,67.8 L293.9,65.7 L291.6,65.5 L289.4,64.3 L288.0,65.3 L283.2,65.8 L273.5,65.0 L267.8,64.0 L263.5,63.5 L261.3,62.3 L264.1,60.7 L260.3,60.7 L259.5,57.2 L261.5,54.1 L264.2,52.7 L271.1,51.8 L269.2,54.0 Z" fill="#5fbf74" stroke="#3f9f57" stroke-width="0.8"/>
<path d="M232.4,51.6 L235.6,52.3 L240.3,51.9 L241.0,52.9 L238.5,54.6 L242.6,56.1 L242.1,59.2 L237.7,60.5 L235.1,60.2 L233.3,58.9 L226.7,56.2 L226.7,55.1 L232.2,55.5 L229.2,53.3 L232.4,51.6 Z" fill="#5fbf74" stroke="#3f9f57" stroke-width="0.8"/>
<path d="M882.9,53.8 L878.9,53.8 L873.4,53.4 L873.0,53.3 L875.5,51.9 L878.8,51.6 L882.6,52.9 L882.9,53.8 Z" fill="#5fbf74" stroke="#3f9f57" stroke-width="0.8"/>
<path d="M251.5,55.3 L248.6,57.9 L245.6,57.8 L243.9,54.7 L244.0,53.0 L245.3,51.6 L248.0,50.6 L253.5,50.7 L258.6,51.6 L254.7,54.6 L251.5,55.3 Z" fill="#5fbf74" stroke="#3f9f57" stroke-width="0.8"/>
<path d="M178.8,60.1 L171.8,61.8 L170.3,60.3 L164.2,58.4 L165.1,57.3 L167.2,54.5 L169.5,52.2 L166.9,50.1 L175.9,49.5 L179.7,50.2 L186.5,50.4 L189.1,51.4 L192.0,52.9 L188.6,53.8 L182.1,56.2 L178.8,58.6 L178.8,60.1 Z" fill="#5fbf74" stroke="#3f9f57" stroke-width="0.8"/>
<path d="M902.0,47.3 L898.9,48.7 L894.6,48.4 L889.7,47.0 L890.3,45.9 L895.3,46.4 L902.0,47.3 Z" fill="#5fbf74" stroke="#3f9f57" stroke-width="0.8"/>
<path d="M250.4,47.7 L248.9,49.0 L245.0,48.8 L241.8,47.9 L243.2,46.3 L247.1,45.4 L249.4,46.6 L250.4,47.7 Z" fill="#5fbf74" stroke="#3f9f57" stroke-width="0.8"/>
<path d="M886.9,45.7 L884.8,48.2 L875.0,48.2 L870.5,49.0 L865.3,46.7 L866.7,44.3 L870.2,43.7 L877.3,43.9 L886.9,45.7 Z" fill="#5fbf74" stroke="#3f9f57" stroke-width="0.8"/>
<path d="M237.3,41.7 L239.4,43.3 L239.5,45.1 L238.2,47.6 L233.8,48.0 L231.0,47.4 L231.0,45.4 L226.7,45.7 L226.5,43.0 L229.4,43.1 L233.4,41.9 L237.1,42.1 L237.3,41.7 Z" fill="#5fbf74" stroke="#3f9f57" stroke-width="0.8"/>
<path d="M211.4,43.5 L212.5,44.7 L214.9,44.1 L217.7,44.3 L218.1,46.0 L216.5,47.6 L207.5,48.1 L200.7,49.6 L196.7,49.7 L196.3,48.6 L201.9,47.1 L189.8,47.5 L186.1,46.9 L189.7,43.5 L192.3,42.5 L199.8,43.7 L204.5,45.7 L209.2,46.0 L205.3,42.7 L207.8,41.4 L210.5,41.8 L211.4,43.5 Z" fill="#5fbf74" stroke="#3f9f57" stroke-width="0.8"/>
<path d="M653.4,62.4 L651.9,62.7 L643.1,62.3 L642.4,60.7 L637.6,59.8 L637.2,57.9 L639.9,57.2 L639.9,55.3 L645.1,52.4 L642.7,51.9 L649.1,48.9 L648.4,47.3 L654.3,45.5 L663.1,43.3 L672.0,42.7 L676.6,41.4 L681.8,40.9 L683.6,42.3 L681.8,43.4 L672.4,45.1 L664.2,46.7 L655.9,50.0 L652.0,53.4 L647.8,56.7 L648.3,59.6 L653.4,62.4 Z" fill="#5fbf74" stroke="#3f9f57" stroke-width="0.8"/>
<path d="M247.5,40.4 L250.5,41.5 L255.7,41.5 L258.0,42.6 L257.4,43.9 L260.5,44.7 L262.2,45.5 L265.8,45.7 L269.7,46.0 L273.9,45.2 L279.3,44.9 L283.7,45.2 L286.5,46.5 L287.1,47.9 L285.4,48.8 L281.5,49.6 L278.1,49.1 L270.4,49.7 L264.9,49.7 L260.6,49.3 L253.5,48.2 L252.6,46.3 L252.3,44.6 L249.6,43.1 L244.1,42.6 L241.0,41.6 L242.0,40.2 L247.5,40.4 Z" fill="#5fbf74" stroke="#3f9f57" stroke-width="0.8"/>
<path d="M190.1,38.5 L189.8,41.1 L187.7,42.3 L185.2,42.5 L180.3,44.0 L176.0,44.5 L172.4,43.8 L172.4,43.8 L176.9,41.2 L182.4,39.0 L186.5,39.0 L190.1,38.5 Z" fill="#5fbf74" stroke="#3f9f57" stroke-width="0.8"/>
<path d="M785.3,40.8 L786.0,42.5 L788.4,41.7 L796.2,41.7 L802.2,43.4 L804.4,44.7 L803.7,46.5 L800.7,47.5 L793.7,49.4 L791.7,50.5 L795.0,50.9 L799.0,51.8 L801.4,51.2 L802.7,53.4 L803.9,52.5 L808.2,51.9 L816.7,52.5 L817.4,54.1 L828.5,54.6 L828.7,52.0 L834.3,52.6 L838.6,52.6 L842.9,54.4 L844.1,56.6 L842.6,58.1 L845.9,60.8 L850.1,62.2 L852.7,58.6 L857.0,60.1 L861.5,59.2 L866.7,60.2 L868.6,59.3 L873.0,59.8 L871.1,56.5 L874.6,55.1 L898.7,57.3 L900.9,59.3 L907.9,62.0 L918.7,61.3 L924.0,61.9 L926.2,63.3 L925.9,65.9 L929.2,66.8 L932.7,66.1 L937.5,66.0 L942.5,66.7 L947.6,66.3 L952.2,69.4 L955.5,68.3 L953.4,66.1 L954.5,64.6 L963.1,65.5 L968.6,65.3 L976.3,67.0 L980.0,68.5 L980.0,82.2 L980.0,82.2 L976.6,83.8 L973.1,83.5 L975.5,85.3 L977.1,88.2 L978.3,89.1 L978.6,90.6 L977.9,91.5 L973.0,90.7 L965.5,93.3 L963.1,93.7 L959.1,96.1 L955.2,98.3 L954.2,99.8 L950.4,97.4 L943.5,100.2 L942.2,98.9 L939.7,100.4 L936.1,99.9 L935.2,102.1 L932.0,105.5 L932.1,106.9 L935.2,107.7 L934.8,112.7 L932.3,112.8 L931.2,115.7 L932.3,117.2 L927.7,119.0 L926.7,122.9 L922.7,123.7 L922.0,127.2 L918.1,130.5 L917.1,128.1 L916.0,123.0 L914.5,115.4 L915.8,110.6 L918.0,108.5 L918.2,106.9 L922.3,106.1 L927.1,101.8 L931.7,98.2 L936.5,95.5 L938.6,90.6 L935.4,90.9 L933.8,93.8 L927.0,97.5 L924.8,93.3 L917.9,94.5 L911.2,100.3 L913.5,102.4 L907.5,103.3 L903.4,103.6 L903.6,101.1 L899.4,100.6 L896.1,102.3 L888.0,101.7 L879.2,102.7 L870.6,109.5 L860.3,117.6 L864.5,118.1 L865.8,120.2 L868.4,121.0 L870.1,119.3 L873.1,119.5 L876.9,123.3 L877.0,126.2 L874.9,129.7 L874.7,133.8 L873.5,139.3 L869.5,144.3 L868.6,146.7 L865.0,150.7 L861.4,154.7 L859.7,156.8 L856.1,158.8 L854.4,158.8 L852.7,157.1 L849.2,159.7 L848.7,160.8 L847.7,160.6 L846.6,161.8 L845.8,163.0 L845.9,165.4 L844.5,166.2 L844.0,166.8 L843.0,167.8 L841.2,168.4 L840.1,169.3 L840.0,170.8 L839.7,171.2 L840.8,171.8 L842.3,173.3 L844.6,177.4 L845.2,179.6 L845.2,183.6 L844.2,185.5 L841.8,186.1 L839.7,187.6 L837.3,187.9 L837.0,186.0 L837.5,183.4 L836.3,179.8 L838.3,179.2 L836.5,176.3 L835.2,175.6 L834.8,176.3 L834.1,176.5 L834.0,175.9 L833.3,175.6 L832.6,175.0 L833.3,173.5 L833.9,173.1 L833.7,172.5 L834.4,170.6 L834.2,170.0 L832.6,169.7 L831.4,168.7 L827.6,169.7 L825.7,171.4 L822.8,172.3 L824.2,170.7 L823.7,169.4 L825.8,167.0 L824.4,165.2 L822.0,166.4 L819.0,168.8 L817.4,171.1 L814.8,171.2 L813.4,172.8 L814.8,175.2 L817.0,175.8 L817.1,177.3 L819.2,178.3 L822.2,175.8 L824.6,177.2 L826.3,177.3 L826.7,179.1 L822.9,180.1 L821.7,181.9 L819.1,183.6 L817.7,186.1 L820.6,188.0 L821.7,191.4 L823.3,194.5 L825.1,197.2 L825.0,199.7 L823.4,200.7 L824.0,202.5 L825.6,203.6 L825.2,206.4 L824.5,209.1 L823.0,209.5 L821.1,213.2 L818.9,217.7 L816.4,221.9 L812.8,225.0 L809.0,227.9 L806.0,228.3 L804.4,229.9 L803.5,228.8 L802.0,230.5 L798.2,232.2 L795.4,232.7 L794.5,236.4 L793.0,236.6 L792.3,234.1 L793.0,232.7 L789.4,231.6 L788.1,232.2 L784.6,235.1 L782.4,238.4 L781.8,240.8 L783.8,244.4 L786.3,249.0 L788.7,251.1 L790.3,253.9 L791.6,260.3 L791.2,266.3 L789.0,268.6 L785.9,270.8 L783.7,273.7 L780.4,276.9 L779.5,274.7 L780.2,272.4 L778.2,270.4 L776.0,269.9 L774.9,268.1 L773.6,264.5 L771.2,262.9 L768.9,263.0 L769.3,260.3 L766.9,260.3 L766.7,264.1 L765.3,269.2 L764.4,272.2 L764.6,274.7 L766.3,274.8 L767.4,278.0 L767.9,281.0 L769.4,282.9 L771.0,283.3 L772.4,285.1 L773.0,285.5 L774.6,287.5 L775.7,289.9 L775.8,292.2 L775.6,293.7 L775.8,294.9 L776.0,297.0 L776.9,297.9 L778.0,301.0 L777.9,302.2 L776.1,302.4 L773.5,299.8 L770.4,297.1 L770.1,295.3 L768.5,293.0 L768.2,290.2 L767.2,288.3 L767.5,285.8 L766.9,284.3 L765.8,283.0 L765.4,281.3 L764.0,279.3 L762.7,277.7 L762.2,279.7 L761.7,277.8 L762.0,275.6 L762.8,272.3 L762.6,269.8 L763.4,267.1 L762.5,265.1 L762.7,261.3 L761.6,259.5 L760.7,255.4 L760.3,251.0 L759.1,248.2 L757.3,249.9 L754.3,252.4 L752.8,252.0 L751.2,251.2 L752.1,247.0 L751.5,243.7 L749.4,239.7 L749.8,238.5 L748.2,238.1 L746.3,235.2 L745.6,233.4 L745.4,231.7 L744.9,230.0 L743.8,228.0 L741.3,227.9 L741.6,229.3 L740.7,231.2 L739.6,230.5 L739.2,231.1 L738.5,230.8 L737.4,230.5 L737.0,231.7 L735.2,231.7 L731.9,232.4 L732.1,235.0 L730.7,237.0 L726.8,239.4 L723.8,243.4 L721.8,245.6 L719.2,247.9 L719.2,249.4 L717.8,250.3 L715.4,251.5 L714.2,251.7 L713.4,254.3 L714.0,258.8 L714.1,261.7 L713.0,265.0 L713.0,270.9 L711.6,271.0 L710.4,273.7 L711.2,274.8 L708.7,275.8 L707.8,278.1 L706.8,279.1 L704.2,275.9 L703.0,271.1 L702.0,267.6 L701.1,265.9 L699.6,262.6 L699.0,258.3 L698.5,256.1 L696.1,251.4 L695.0,244.7 L694.2,240.3 L694.2,236.1 L693.7,232.9 L689.8,234.9 L687.9,234.5 L684.4,230.3 L685.7,229.1 L684.9,227.7 L681.8,224.8 L679.8,223.9 L679.1,221.4 L677.0,218.8 L672.1,219.5 L667.7,219.5 L664.0,220.0 L659.0,219.0 L656.1,218.2 L653.1,217.7 L651.9,213.5 L650.6,212.9 L648.6,213.5 L645.9,215.2 L642.6,214.0 L640.0,211.4 L637.4,210.4 L635.6,207.1 L633.6,202.5 L632.2,203.1 L630.5,201.9 L629.5,203.3 L627.9,203.1 L628.5,204.6 L628.3,205.4 L629.1,208.0 L630.2,211.0 L631.5,211.8 L631.9,213.0 L633.7,214.5 L633.9,215.9 L633.6,217.0 L634.0,218.2 L634.7,219.2 L635.1,220.3 L635.5,221.1 L635.3,218.6 L636.0,216.8 L636.8,216.4 L637.6,217.5 L637.6,219.5 L637.0,221.6 L637.5,222.9 L638.0,222.7 L638.1,223.7 L640.2,223.1 L642.4,223.2 L644.0,223.3 L645.8,221.0 L647.8,218.8 L649.5,216.6 L650.3,215.5 L650.6,215.8 L650.4,217.2 L650.0,217.8 L650.4,220.5 L651.6,222.9 L653.1,224.2 L655.0,224.6 L656.6,225.2 L657.8,227.2 L658.5,228.4 L659.5,228.8 L659.5,229.6 L658.5,231.6 L658.1,232.6 L657.0,233.7 L656.0,236.1 L654.8,235.9 L654.2,236.7 L653.8,238.5 L654.1,240.8 L653.9,241.2 L652.6,241.2 L651.0,242.5 L650.7,244.2 L650.1,244.9 L648.4,244.9 L647.4,245.7 L647.4,247.1 L646.1,248.1 L644.6,247.8 L642.9,248.9 L641.6,249.1 L639.7,250.0 L639.2,251.6 L639.1,252.8 L636.5,254.2 L632.2,255.8 L629.8,258.3 L628.6,258.5 L627.8,258.2 L626.3,259.7 L624.6,260.3 L622.3,260.5 L621.7,260.7 L621.1,261.6 L620.4,261.9 L620.0,262.8 L618.7,262.7 L617.8,263.2 L616.0,263.0 L615.3,261.0 L615.3,259.1 L614.9,258.1 L614.4,255.5 L613.6,254.1 L614.1,253.9 L613.9,252.3 L614.2,251.7 L614.1,250.2 L613.7,248.7 L612.9,247.7 L612.7,246.3 L611.3,245.0 L609.9,242.1 L609.2,239.3 L607.3,237.0 L606.1,236.4 L604.4,233.1 L604.1,230.7 L604.2,228.6 L602.6,224.8 L601.4,223.5 L600.0,222.8 L599.1,220.8 L599.2,220.0 L598.5,218.2 L597.7,217.4 L596.7,214.9 L595.0,212.1 L593.7,209.7 L592.4,209.7 L592.8,207.8 L592.9,206.6 L593.2,205.2 L593.1,204.7 L592.4,206.1 L591.8,208.7 L591.1,210.5 L590.5,211.1 L589.6,210.0 L588.4,208.5 L586.5,203.5 L586.2,203.8 L587.3,207.5 L588.9,211.0 L590.9,216.3 L591.9,218.2 L592.8,220.2 L595.2,224.0 L594.6,224.6 L594.7,226.8 L597.8,229.9 L598.3,230.6 L599.2,234.0 L598.6,234.7 L599.0,238.2 L600.0,242.3 L601.0,243.2 L602.4,244.5 L604.0,248.5 L604.7,251.6 L606.2,253.3 L609.8,256.6 L611.3,258.5 L612.7,260.5 L613.6,261.7 L614.9,262.8 L615.5,263.8 L615.4,265.3 L613.9,266.1 L615.1,267.0 L615.9,267.7 L616.4,269.1 L617.6,270.5 L619.0,270.6 L621.5,269.7 L624.4,269.3 L626.7,268.2 L628.1,268.0 L629.0,267.3 L630.5,267.2 L631.4,267.1 L632.6,266.6 L634.0,266.3 L635.3,265.1 L636.3,265.1 L636.4,266.0 L636.1,268.1 L636.1,269.9 L635.6,271.1 L634.8,274.9 L633.5,278.7 L631.9,283.1 L629.6,288.2 L627.3,292.0 L624.2,296.8 L621.5,299.6 L617.5,303.0 L615.0,305.6 L612.1,309.8 L611.5,311.6 L610.9,312.4 L609.0,313.8 L608.4,315.3 L607.4,315.5 L607.0,317.9 L606.1,319.3 L605.6,321.6 L604.5,322.8 L603.3,327.0 L603.5,329.0 L605.2,330.2 L605.3,331.1 L604.5,333.2 L604.7,334.3 L604.5,335.9 L605.4,338.1 L606.5,341.5 L607.5,342.2 L607.9,343.8 L607.8,347.2 L608.2,350.3 L608.3,355.7 L608.7,357.4 L607.9,359.8 L606.9,362.2 L605.2,364.4 L602.8,365.7 L599.8,367.3 L596.8,371.1 L595.7,371.7 L593.9,374.1 L592.8,374.9 L592.5,377.4 L593.8,380.0 L594.3,382.0 L594.4,383.1 L594.8,382.9 L594.8,386.3 L594.3,387.9 L595.0,388.5 L594.6,389.9 L593.4,391.1 L591.2,392.3 L588.0,394.2 L586.9,395.5 L587.1,396.9 L587.8,397.1 L587.5,399.0 L586.9,401.5 L586.6,404.3 L585.9,405.9 L584.1,407.7 L583.5,408.2 L582.4,409.9 L581.7,411.7 L580.1,414.2 L577.1,417.7 L575.3,419.8 L573.2,421.4 L570.5,422.7 L569.1,422.9 L568.7,423.8 L567.1,423.3 L565.8,424.0 L562.9,423.3 L561.3,423.7 L560.2,423.6 L557.4,424.9 L555.2,425.5 L553.5,426.8 L552.3,426.9 L551.2,425.6 L550.3,425.6 L549.1,424.0 L549.0,424.5 L548.7,423.6 L548.7,421.5 L547.8,419.2 L548.7,418.6 L548.6,416.0 L546.8,412.7 L545.5,409.8 L545.5,409.8 L543.6,405.3 L541.6,402.7 L540.6,400.2 L540.0,396.8 L539.3,394.3 L538.4,389.0 L538.4,384.9 L538.0,383.0 L537.0,381.6 L535.6,378.7 L534.2,374.6 L533.6,372.4 L531.5,369.0 L531.3,366.4 L531.0,364.2 L531.4,361.2 L532.3,358.0 L532.5,356.5 L533.3,353.4 L534.0,352.0 L535.5,349.7 L536.4,348.2 L536.6,345.6 L536.5,343.7 L535.7,342.4 L535.0,340.3 L534.3,338.3 L534.5,337.6 L535.3,336.2 L534.5,332.9 L533.9,330.5 L532.6,328.4 L532.9,327.7 L532.5,326.6 L531.8,324.0 L529.6,320.4 L526.8,316.9 L525.1,314.0 L523.5,310.5 L523.5,309.3 L524.1,308.2 L524.8,305.7 L525.3,303.1 L524.8,302.6 L525.7,298.7 L526.1,296.0 L525.1,293.7 L523.9,293.1 L523.3,291.6 L522.6,291.1 L522.7,290.1 L519.9,291.4 L518.9,291.2 L517.9,292.0 L515.7,291.9 L514.3,289.7 L513.4,287.2 L511.5,285.0 L509.5,285.0 L507.2,285.0 L505.0,285.4 L502.8,286.1 L498.6,288.2 L497.2,289.4 L494.8,290.4 L492.4,289.4 L491.2,289.4 L489.3,288.7 L487.6,288.8 L484.4,289.4 L482.6,290.4 L479.9,291.6 L479.4,291.5 L478.7,291.6 L476.0,289.9 L473.6,287.3 L471.3,285.4 L469.5,283.2 L468.8,282.9 L466.9,281.5 L465.5,279.7 L465.0,278.4 L464.7,275.9 L463.5,273.8 L462.5,272.5 L461.8,272.0 L461.1,271.3 L460.8,269.8 L460.4,269.1 L459.7,268.5 L458.2,267.0 L457.1,266.8 L456.5,265.8 L456.5,265.3 L455.7,264.6 L455.5,263.9 L455.1,261.2 L455.4,259.7 L454.3,257.0 L453.0,255.8 L454.2,255.1 L455.5,252.7 L456.1,250.9 L455.9,249.0 L456.6,247.3 L456.9,244.1 L456.6,240.7 L456.3,239.0 L456.6,237.2 L455.9,235.6 L454.5,234.1 L454.6,232.6 L454.7,231.0 L455.8,230.1 L456.6,228.3 L456.5,227.1 L457.4,224.7 L458.9,222.5 L459.8,221.9 L460.5,219.9 L460.5,218.1 L461.5,216.0 L463.3,214.7 L465.0,211.2 L466.3,209.8 L468.8,209.4 L470.9,207.1 L472.3,206.1 L474.5,203.3 L473.8,199.0 L474.8,196.0 L475.2,194.2 L476.9,191.8 L479.6,190.3 L481.6,188.8 L483.3,185.3 L484.2,183.1 L486.1,183.1 L487.8,184.6 L490.3,184.4 L493.1,185.1 L494.2,185.2 L496.8,183.3 L499.7,182.7 L501.3,181.3 L503.9,180.2 L508.4,179.6 L512.8,179.3 L514.2,179.8 L516.7,178.5 L519.5,178.4 L520.6,179.2 L522.5,179.0 L525.4,177.6 L527.2,178.1 L527.1,179.8 L529.4,178.5 L529.6,179.2 L528.3,180.9 L528.2,182.5 L529.2,183.3 L528.8,186.3 L527.1,188.1 L527.6,189.9 L529.0,190.0 L529.6,191.6 L530.6,192.2 L533.8,193.4 L534.9,193.1 L537.1,193.7 L540.7,195.2 L541.9,198.3 L544.3,198.9 L548.1,200.4 L550.9,202.1 L552.2,201.2 L553.5,199.6 L552.9,197.0 L553.7,195.3 L555.6,193.7 L557.4,193.2 L561.1,193.9 L562.0,195.5 L563.0,195.5 L563.8,196.1 L566.5,196.5 L567.1,197.6 L570.7,197.5 L573.2,198.5 L575.9,199.5 L577.1,200.0 L579.2,198.9 L580.3,197.9 L582.6,197.6 L584.5,198.1 L585.2,199.8 L585.8,198.7 L588.0,199.5 L590.1,199.7 L591.4,198.8 L592.2,197.7 L592.0,197.5 L592.7,195.9 L593.2,193.3 L593.6,192.4 L593.7,192.3 L594.6,189.5 L595.9,187.1 L596.0,187.0 L595.7,184.3 L596.4,182.9 L595.4,181.4 L596.4,180.1 L594.8,180.3 L592.6,179.6 L590.7,181.5 L586.7,181.9 L584.5,180.1 L581.7,180.0 L581.0,181.4 L579.2,181.8 L576.6,180.0 L573.7,180.0 L572.1,176.6 L570.2,174.7 L571.5,172.0 L569.8,170.3 L572.7,167.0 L576.9,166.9 L578.0,164.3 L583.1,164.7 L586.3,162.5 L589.4,161.5 L593.8,161.4 L598.4,163.9 L602.3,165.2 L605.4,164.7 L607.7,165.0 L610.8,163.2 L611.2,161.7 L610.5,159.4 L609.0,158.1 L607.5,157.7 L606.5,156.6 L603.1,153.7 L600.1,152.4 L597.8,150.4 L599.7,149.8 L602.0,146.9 L600.5,145.6 L604.4,144.2 L604.3,143.4 L601.9,144.0 L599.8,144.2 L598.0,145.4 L595.5,145.5 L593.2,146.8 L593.4,149.0 L594.7,149.8 L597.4,149.6 L596.9,150.8 L594.0,151.4 L590.4,153.4 L588.9,152.7 L589.5,151.1 L586.5,150.1 L587.0,149.4 L589.6,148.3 L588.8,147.5 L584.7,146.6 L584.5,145.3 L582.0,145.8 L581.0,147.7 L578.9,150.2 L579.0,151.1 L577.7,151.8 L576.9,151.5 L576.2,155.7 L574.8,157.1 L573.8,159.6 L574.7,161.6 L575.0,162.9 L577.3,164.0 L576.8,164.8 L573.7,165.0 L572.5,166.1 L570.3,168.0 L569.4,166.4 L569.5,165.6 L567.9,165.5 L566.5,165.2 L563.2,166.1 L565.1,168.1 L563.7,168.6 L562.2,168.6 L560.8,166.8 L560.3,167.6 L560.9,169.7 L562.3,171.3 L561.3,172.0 L562.7,173.6 L564.1,174.6 L564.1,176.6 L561.6,175.7 L562.4,177.4 L560.7,177.8 L561.7,180.8 L560.0,180.9 L557.8,179.4 L556.8,176.6 L556.3,174.3 L555.3,172.7 L553.9,170.8 L553.7,169.8 L553.3,169.5 L553.2,168.8 L551.7,167.6 L551.5,166.0 L551.7,163.6 L552.1,162.5 L551.7,162.0 L551.1,161.7 L550.4,160.6 L549.2,159.9 L546.7,158.6 L545.1,157.4 L542.7,156.4 L540.5,153.8 L541.0,153.6 L539.8,152.1 L539.7,151.0 L538.0,150.4 L537.2,151.9 L536.4,150.7 L536.5,149.6 L536.6,149.5 L537.2,149.2 L535.0,148.7 L532.9,149.9 L533.0,151.6 L532.7,152.6 L533.6,154.4 L536.1,156.1 L537.4,159.0 L540.4,161.7 L542.5,161.7 L543.1,162.5 L542.4,163.2 L544.8,164.4 L546.7,165.5 L549.0,167.3 L549.3,167.9 L548.8,169.1 L547.3,167.5 L545.0,167.0 L543.9,169.2 L545.8,170.5 L545.5,172.3 L544.4,172.5 L542.9,175.4 L541.8,175.7 L541.8,174.7 L542.4,172.8 L543.0,172.1 L541.9,170.1 L541.1,168.3 L540.0,167.9 L539.2,166.4 L537.5,165.8 L536.3,164.4 L534.4,164.2 L532.3,162.6 L529.8,160.4 L528.0,158.4 L527.2,155.0 L525.9,154.6 L523.7,153.4 L522.5,153.9 L520.9,155.5 L519.8,155.7 L517.4,157.7 L512.2,156.7 L508.3,157.9 L508.0,159.9 L508.1,162.0 L505.6,164.3 L502.2,165.0 L501.9,166.1 L500.3,168.1 L499.3,170.9 L500.3,172.8 L498.8,174.4 L498.2,176.6 L496.2,177.3 L494.3,180.0 L490.9,180.0 L488.3,180.0 L486.7,181.2 L485.7,182.5 L484.4,182.2 L483.4,181.0 L482.6,179.0 L480.1,178.5 L479.1,179.4 L477.6,178.9 L476.3,179.3 L476.7,176.6 L476.4,174.5 L475.2,174.2 L474.6,172.8 L474.8,170.6 L475.9,169.3 L476.1,167.9 L476.6,165.9 L476.6,164.4 L476.0,163.2 L475.9,162.0 L476.0,159.5 L475.0,158.0 L478.7,155.5 L482.0,156.2 L485.6,156.1 L488.4,156.7 L490.6,156.6 L494.9,156.7 L496.3,154.6 L496.8,147.7 L494.1,144.1 L492.1,142.3 L488.0,141.0 L487.8,138.5 L491.2,137.7 L495.7,138.6 L494.8,134.7 L497.4,136.2 L503.6,133.5 L504.4,130.7 L506.7,130.0 L508.8,129.3 L510.2,128.4 L512.5,123.3 L516.2,121.8 L518.4,121.9 L518.9,121.2 L521.2,121.0 L521.7,121.8 L523.5,120.1 L522.9,118.8 L522.7,116.8 L521.7,114.9 L521.6,111.4 L522.0,110.4 L522.8,109.4 L525.1,109.2 L526.1,108.2 L528.2,107.3 L528.1,109.0 L527.3,110.2 L527.7,111.1 L529.1,111.7 L528.4,113.0 L527.7,112.6 L525.7,115.1 L526.5,116.7 L526.5,118.1 L529.2,118.9 L529.2,120.1 L531.9,119.5 L533.4,118.5 L536.4,119.9 L537.7,121.0 L539.5,120.0 L543.6,118.4 L547.0,117.2 L549.7,117.8 L549.9,118.6 L552.4,118.7 L553.0,117.2 L556.7,116.0 L556.1,113.1 L556.2,110.5 L557.6,108.4 L560.1,107.2 L562.2,109.8 L564.3,109.7 L564.8,107.0 L565.1,105.0 L564.2,105.4 L562.5,104.2 L562.2,102.2 L565.6,101.3 L569.0,100.8 L571.9,101.3 L574.6,101.2 L577.6,99.3 L574.9,97.7 L570.0,98.0 L565.3,99.2 L561.0,100.0 L559.4,98.1 L556.9,96.9 L557.5,93.5 L556.2,90.4 L557.4,88.4 L559.8,86.2 L565.9,82.5 L567.7,81.8 L567.5,80.3 L563.7,78.7 L559.2,79.7 L556.6,82.1 L557.0,84.2 L552.7,87.0 L547.6,89.9 L545.7,94.8 L547.6,97.2 L550.1,99.1 L547.7,103.0 L544.9,103.8 L543.9,109.6 L542.3,112.9 L539.1,112.5 L537.6,115.3 L534.5,115.4 L533.7,112.2 L531.4,108.3 L529.4,103.4 L527.6,101.3 L522.4,105.2 L518.8,106.1 L515.1,104.3 L514.2,100.6 L513.3,92.6 L515.8,90.4 L522.8,87.5 L528.1,83.9 L533.0,79.1 L539.4,72.5 L543.8,69.9 L551.2,65.5 L557.0,64.0 L561.4,64.2 L565.5,61.3 L570.3,61.5 L575.1,60.8 L583.4,63.3 L580.0,64.2 L582.9,66.4 L585.7,65.2 L590.1,67.3 L597.4,68.1 L607.4,72.0 L609.5,73.7 L609.7,76.0 L606.7,77.8 L602.4,78.7 L590.4,76.1 L588.5,76.5 L592.8,79.1 L593.2,84.2 L596.6,85.2 L598.7,86.1 L599.0,84.5 L597.4,82.9 L599.1,81.7 L605.6,83.8 L607.8,83.0 L606.0,80.4 L612.2,77.1 L614.7,77.3 L617.2,78.5 L618.8,76.1 L616.5,74.0 L617.8,72.0 L615.9,69.8 L623.3,70.9 L624.9,72.9 L621.5,73.3 L621.5,75.2 L623.6,76.4 L627.7,75.7 L628.4,73.4 L633.9,71.8 L643.2,68.8 L645.3,69.0 L642.6,71.1 L645.9,71.5 L647.8,70.3 L652.8,70.2 L656.8,68.8 L659.8,70.8 L662.9,68.6 L660.1,66.5 L661.5,65.4 L669.3,66.5 L673.0,67.5 L682.7,71.5 L684.5,69.7 L681.8,67.8 L681.7,67.1 L678.5,66.8 L679.4,65.1 L677.9,62.4 L677.9,61.3 L682.8,58.2 L684.5,55.1 L686.5,54.4 L693.6,55.3 L694.1,57.2 L691.6,60.0 L693.3,61.1 L694.1,63.5 L693.5,68.3 L696.4,70.4 L695.3,72.7 L690.1,77.6 L693.1,78.1 L694.2,76.9 L697.1,76.0 L697.8,74.3 L700.1,72.6 L698.6,70.7 L699.8,68.4 L696.9,68.1 L696.3,66.2 L698.4,62.7 L694.9,59.9 L699.7,57.6 L699.1,55.1 L700.4,55.0 L701.8,56.9 L700.8,60.3 L703.6,60.9 L702.4,58.4 L706.9,57.1 L712.4,56.9 L717.3,58.8 L715.0,56.0 L714.7,52.3 L719.3,51.6 L725.7,51.7 L731.5,51.3 L729.4,49.5 L732.4,47.2 L735.5,47.1 L740.7,45.4 L747.7,45.0 L748.6,44.0 L755.6,43.7 L757.8,44.5 L763.8,42.6 L768.7,42.7 L769.4,41.2 L772.0,39.7 L778.3,38.3 L782.8,39.4 L779.2,40.3 L785.3,40.8 Z M631.0,164.1 L632.3,166.5 L633.6,166.7 L634.4,167.6 L632.2,167.9 L631.7,170.6 L631.3,171.8 L630.3,172.6 L630.4,174.3 L631.2,176.8 L633.7,177.6 L635.6,179.3 L639.4,179.9 L643.5,179.0 L643.8,178.2 L643.3,175.7 L643.7,172.1 L641.6,170.9 L642.3,168.6 L640.5,168.4 L641.1,165.5 L643.6,166.3 L646.0,165.2 L644.0,163.1 L643.3,161.2 L641.1,162.0 L640.8,164.6 L640.0,162.3 L639.9,161.5 L640.5,160.0 L640.0,158.8 L636.9,157.7 L635.7,154.6 L634.2,153.7 L634.1,152.6 L636.7,152.9 L636.8,150.4 L639.1,149.8 L641.4,150.3 L641.9,147.0 L641.4,144.8 L638.8,145.0 L636.5,144.1 L633.4,145.7 L630.9,146.4 L629.7,148.4 L627.1,149.0 L624.5,152.6 L626.9,155.8 L626.6,158.2 L629.6,162.2 L631.0,164.1 Z" fill="#5fbf74" stroke="#3f9f57" stroke-width="0.8"/>
<path d="M249.8,38.9 L248.5,39.0 L243.5,38.8 L242.8,37.8 L248.2,37.9 L250.1,38.5 L249.8,38.9 Z" fill="#5fbf74" stroke="#3f9f57" stroke-width="0.8"/>
<path d="M206.2,38.3 L201.2,39.3 L197.2,38.2 L199.4,37.1 L203.3,36.7 L207.1,37.3 L206.2,38.3 Z" fill="#5fbf74" stroke="#3f9f57" stroke-width="0.8"/>
<path d="M565.9,37.8 L560.0,39.2 L555.3,38.4 L557.1,37.5 L555.5,36.4 L561.0,35.7 L562.1,37.0 L565.9,37.8 Z" fill="#5fbf74" stroke="#3f9f57" stroke-width="0.8"/>
<path d="M207.6,35.2 L204.3,35.9 L199.9,35.9 L199.9,35.4 L202.7,34.3 L204.1,34.5 L207.6,35.2 Z" fill="#5fbf74" stroke="#3f9f57" stroke-width="0.8"/>
<path d="M244.5,37.1 L240.5,37.8 L238.3,37.0 L237.2,35.7 L237.0,34.3 L240.4,34.4 L242.0,34.6 L245.2,35.8 L244.5,37.1 Z" fill="#5fbf74" stroke="#3f9f57" stroke-width="0.8"/>
<path d="M233.2,36.1 L234.2,37.6 L229.9,37.2 L225.5,36.1 L219.5,36.0 L222.1,34.9 L218.9,34.1 L218.7,32.8 L223.9,33.2 L231.1,34.5 L233.2,36.1 Z" fill="#5fbf74" stroke="#3f9f57" stroke-width="0.8"/>
<path d="M780.2,36.2 L765.2,37.5 L770.0,33.0 L772.2,32.6 L774.2,32.8 L781.0,34.8 L780.2,36.2 Z" fill="#5fbf74" stroke="#3f9f57" stroke-width="0.8"/>
<path d="M548.7,31.4 L557.5,34.0 L550.7,35.3 L549.3,37.9 L546.9,38.5 L545.6,41.4 L542.4,41.5 L536.7,39.4 L539.1,38.2 L535.1,37.2 L529.9,34.3 L527.9,31.6 L535.1,30.3 L536.6,31.5 L540.4,31.5 L541.4,30.3 L545.3,30.2 L548.7,31.4 Z" fill="#5fbf74" stroke="#3f9f57" stroke-width="0.8"/>
<path d="M567.9,29.0 L573.1,30.2 L569.1,32.0 L561.4,32.4 L553.5,31.9 L553.1,30.9 L549.2,30.8 L546.3,29.3 L554.5,28.3 L558.4,29.1 L561.1,28.1 L567.9,29.0 Z" fill="#5fbf74" stroke="#3f9f57" stroke-width="0.8"/>
<path d="M636.4,28.5 L632.8,28.9 L630.4,29.2 L630.0,29.8 L626.9,30.3 L624.0,29.5 L625.5,28.4 L619.6,28.3 L624.8,27.7 L628.8,27.7 L629.4,28.6 L630.9,27.8 L633.4,27.2 L637.4,27.9 L636.4,28.5 Z" fill="#5fbf74" stroke="#3f9f57" stroke-width="0.8"/>
<path d="M766.5,34.2 L760.7,34.7 L753.3,33.7 L748.8,32.3 L746.8,29.9 L743.1,29.2 L750.1,26.8 L755.8,26.0 L761.0,27.8 L767.2,31.1 L766.5,34.2 Z" fill="#5fbf74" stroke="#3f9f57" stroke-width="0.8"/>
<path d="M267.9,31.5 L271.2,32.6 L267.5,33.7 L262.6,36.3 L257.9,36.5 L252.3,36.1 L249.5,34.7 L249.5,33.4 L251.6,32.5 L246.7,32.5 L243.8,31.4 L242.1,29.8 L244.0,28.3 L245.8,27.2 L248.5,27.0 L247.4,26.2 L253.6,26.0 L257.0,27.9 L261.5,28.6 L265.8,29.3 L267.9,31.5 Z" fill="#5fbf74" stroke="#3f9f57" stroke-width="0.8"/>
<path d="M317.3,19.6 L324.5,19.9 L330.2,20.3 L335.1,21.3 L334.9,22.2 L328.4,23.7 L322.0,24.4 L319.6,25.2 L325.4,25.2 L319.1,27.3 L314.7,28.2 L310.2,31.1 L304.7,31.6 L303.0,32.3 L294.9,32.7 L298.6,33.1 L296.7,33.7 L299.0,35.5 L296.4,36.6 L292.3,37.6 L291.0,39.0 L287.3,40.0 L287.7,40.8 L292.2,40.6 L292.3,41.5 L285.2,43.6 L278.2,42.6 L270.4,43.1 L266.4,42.7 L261.4,42.5 L261.0,40.9 L266.0,40.1 L264.6,37.6 L266.3,37.4 L273.4,38.9 L269.8,36.6 L265.4,36.0 L267.6,34.6 L272.3,33.8 L273.1,32.6 L269.3,31.3 L268.2,29.5 L275.5,29.6 L277.6,30.0 L281.7,28.8 L275.7,28.4 L266.4,28.6 L261.7,27.4 L259.5,26.0 L256.4,25.0 L255.8,23.8 L259.7,23.2 L262.8,23.0 L268.1,22.5 L272.0,21.2 L275.3,21.4 L278.2,22.3 L280.2,20.5 L283.7,19.9 L288.5,19.5 L296.7,19.4 L298.1,19.8 L305.8,19.2 L311.6,19.4 L317.3,19.6 Z" fill="#5fbf74" stroke="#3f9f57" stroke-width="0.8"/>
<path d="M427.7,18.2 L444.4,20.9 L439.5,22.3 L429.3,22.4 L414.9,22.8 L416.3,23.4 L425.7,23.0 L433.7,24.2 L438.9,23.1 L441.1,24.4 L438.2,26.4 L445.0,25.1 L458.0,23.8 L465.9,24.4 L467.4,25.9 L456.6,28.4 L455.1,29.2 L446.5,29.7 L452.7,29.9 L449.6,32.4 L447.5,34.7 L447.5,38.5 L450.7,40.8 L446.6,40.9 L442.2,42.0 L447.1,43.8 L447.7,46.8 L444.9,47.1 L448.3,50.1 L442.4,50.3 L445.5,51.7 L444.6,52.9 L440.9,53.5 L437.2,53.5 L440.5,55.8 L440.5,57.3 L435.3,55.9 L433.9,56.8 L437.5,57.7 L441.0,59.8 L442.0,62.6 L437.2,63.3 L435.2,61.9 L431.9,60.0 L432.8,62.3 L429.7,64.1 L436.7,64.3 L440.4,64.4 L433.3,67.5 L426.0,70.2 L418.2,71.4 L415.3,71.4 L412.5,72.7 L408.8,76.4 L403.1,78.8 L401.2,78.9 L397.7,79.8 L393.8,80.6 L391.5,82.7 L391.5,85.1 L390.2,87.4 L385.8,90.2 L386.9,92.9 L385.7,95.7 L384.3,99.1 L380.6,99.3 L376.6,96.5 L371.3,96.5 L368.7,94.6 L366.9,91.2 L362.3,86.9 L361.0,84.7 L360.6,81.5 L356.9,78.4 L357.9,75.8 L356.1,74.6 L358.7,70.6 L362.7,69.3 L363.8,67.8 L364.3,65.1 L361.3,66.4 L359.8,66.9 L357.4,67.4 L354.2,66.2 L354.0,63.9 L355.0,62.1 L357.5,62.0 L363.0,62.9 L358.4,60.7 L356.0,59.5 L353.3,60.0 L351.1,59.2 L354.1,56.0 L352.5,54.7 L350.3,52.3 L347.1,48.6 L343.7,47.3 L343.8,45.8 L336.6,43.8 L331.0,43.6 L323.8,43.7 L317.3,44.0 L314.2,42.9 L309.6,40.7 L316.6,39.6 L322.0,39.4 L310.6,38.5 L304.5,37.1 L304.9,35.8 L315.0,34.1 L324.8,32.5 L325.8,31.2 L318.6,30.0 L320.9,28.6 L330.2,26.2 L334.0,25.8 L332.9,24.2 L339.2,23.3 L347.4,22.8 L355.6,22.8 L358.6,23.8 L365.6,21.9 L372.0,23.2 L375.7,23.5 L381.3,24.6 L374.9,22.8 L375.3,21.3 L384.2,19.2 L393.6,19.4 L397.0,18.1 L406.4,17.8 L427.7,18.2 Z" fill="#5fbf74" stroke="#3f9f57" stroke-width="0.8"/>
</svg>